<svg width="25" height="25" viewBox="0 0 25 25" fill="none" xmlns="http://www.w3.org/2000/svg">
<path d="M10.3848 20.0839L3.35351 13.0527C3.28088 12.9801 3.22325 12.894 3.18393 12.7991C3.14462 12.7043 3.12438 12.6026 3.12438 12.4999C3.12438 12.3973 3.14462 12.2956 3.18393 12.2008C3.22325 12.1059 3.28088 12.0198 3.35351 11.9472L10.3848 4.91596C10.5314 4.76937 10.7302 4.68701 10.9375 4.68701C11.1448 4.68701 11.3436 4.76937 11.4902 4.91596C11.6368 5.06256 11.7192 5.26138 11.7192 5.4687C11.7192 5.67601 11.6368 5.87484 11.4902 6.02143L5.79199 11.7187L21.0937 11.7187C21.301 11.7187 21.4997 11.801 21.6462 11.9475C21.7927 12.094 21.875 12.2927 21.875 12.4999C21.875 12.7071 21.7927 12.9059 21.6462 13.0524C21.4997 13.1989 21.3009 13.2812 21.0937 13.2812L5.79199 13.2812L11.4902 18.9785C11.6368 19.1251 11.7192 19.3239 11.7192 19.5312C11.7192 19.7385 11.6368 19.9373 11.4902 20.0839C11.3436 20.2305 11.1448 20.3129 10.9375 20.3129C10.7302 20.3129 10.5314 20.2305 10.3848 20.0839Z" fill="#0099D9"/>
</svg>
