<svg width="16" height="17" viewBox="0 0 16 17" fill="none" xmlns="http://www.w3.org/2000/svg">
<path d="M13.8552 16.2913H1.56633C1.15171 16.2886 0.754792 16.1228 0.461601 15.8296C0.16841 15.5364 0.00249686 15.1395 -0.000152588 14.7249V2.70879C0.00251644 2.2951 0.168743 1.89926 0.462218 1.60768C0.755693 1.3161 1.15263 1.15246 1.56633 1.15247H13.8552C14.2679 1.15247 14.6638 1.31643 14.9557 1.6083C15.2476 1.90017 15.4115 2.29602 15.4115 2.70879V14.7249C15.4116 15.1386 15.2479 15.5355 14.9563 15.8289C14.6647 16.1224 14.2689 16.2886 13.8552 16.2913V16.2913ZM1.56633 1.82957C1.4487 1.82823 1.33195 1.85024 1.22288 1.89433C1.11382 1.93843 1.01454 2.00373 0.93088 2.08644C0.847225 2.16916 0.780794 2.26765 0.735471 2.37621C0.690147 2.48478 0.666872 2.60126 0.66688 2.7189V14.735C0.66688 14.9735 0.761586 15.2023 0.930264 15.371C1.09894 15.5396 1.32779 15.6344 1.56633 15.6344H13.8552C14.092 15.6318 14.3182 15.5358 14.4847 15.3674C14.6512 15.199 14.7445 14.9718 14.7445 14.735V2.70879C14.7445 2.47292 14.6509 2.24672 14.4841 2.07994C14.3173 1.91315 14.091 1.81947 13.8552 1.81947L1.56633 1.82957Z" fill="white"/>
<path d="M15.0781 5.58854H0.333302C0.244853 5.58854 0.160095 5.55341 0.0975522 5.49087C0.035009 5.42832 -0.000152588 5.34349 -0.000152588 5.25504C-0.000152588 5.16659 0.035009 5.08177 0.0975522 5.01923C0.160095 4.95669 0.244853 4.92154 0.333302 4.92154H15.0781C15.1665 4.92154 15.2513 4.95669 15.3138 5.01923C15.3764 5.08177 15.4115 5.16659 15.4115 5.25504C15.4129 5.29922 15.4052 5.34321 15.389 5.38431C15.3727 5.42541 15.3482 5.46273 15.3169 5.49398C15.2857 5.52523 15.2484 5.54975 15.2073 5.56601C15.1662 5.58227 15.1223 5.58994 15.0781 5.58854Z" fill="white"/>
<path d="M3.58748 2.83979C3.49903 2.83979 3.41415 2.80466 3.35161 2.74212C3.28907 2.67958 3.25391 2.59474 3.25391 2.50629V0.333501C3.25391 0.245051 3.28907 0.160217 3.35161 0.097674C3.41415 0.0351308 3.49903 0 3.58748 0C3.67593 0 3.76069 0.0351308 3.82323 0.097674C3.88578 0.160217 3.92094 0.245051 3.92094 0.333501V2.50629C3.92094 2.59474 3.88578 2.67958 3.82323 2.74212C3.76069 2.80466 3.67593 2.83979 3.58748 2.83979Z" fill="white"/>
<path d="M11.8338 2.83994C11.7896 2.84134 11.7456 2.83367 11.7045 2.81741C11.6634 2.80115 11.6261 2.77663 11.5948 2.74538C11.5636 2.71413 11.5392 2.67681 11.5229 2.63571C11.5067 2.59461 11.4989 2.55061 11.5003 2.50644V0.333649C11.4989 0.289473 11.5067 0.245475 11.5229 0.204378C11.5392 0.163281 11.5636 0.125959 11.5948 0.0947068C11.6261 0.0634543 11.6634 0.0389404 11.7045 0.0226773C11.7456 0.00641407 11.7896 -0.00125568 11.8338 0.000147782C11.9222 0.000147782 12.0071 0.0352785 12.0697 0.0978217C12.1322 0.160365 12.1674 0.245199 12.1674 0.333649V2.50644C12.1674 2.59489 12.1322 2.67972 12.0697 2.74227C12.0071 2.80481 11.9222 2.83994 11.8338 2.83994Z" fill="white"/>
<path d="M3.65697 9.78221C4.22628 9.78221 4.68779 9.3207 4.68779 8.75139C4.68779 8.18209 4.22628 7.72058 3.65697 7.72058C3.08767 7.72058 2.62616 8.18209 2.62616 8.75139C2.62616 9.3207 3.08767 9.78221 3.65697 9.78221Z" fill="white"/>
<path d="M7.7105 9.78233C8.27981 9.78233 8.74132 9.32082 8.74132 8.75152C8.74132 8.18221 8.27981 7.7207 7.7105 7.7207C7.1412 7.7207 6.67969 8.18221 6.67969 8.75152C6.67969 9.32082 7.1412 9.78233 7.7105 9.78233Z" fill="white"/>
<path d="M11.7525 9.78233C12.3218 9.78233 12.7833 9.32082 12.7833 8.75152C12.7833 8.18221 12.3218 7.7207 11.7525 7.7207C11.1832 7.7207 10.7217 8.18221 10.7217 8.75152C10.7217 9.32082 11.1832 9.78233 11.7525 9.78233Z" fill="white"/>
<path d="M3.65697 13.1275C4.22628 13.1275 4.68779 12.6659 4.68779 12.0966C4.68779 11.5273 4.22628 11.0658 3.65697 11.0658C3.08767 11.0658 2.62616 11.5273 2.62616 12.0966C2.62616 12.6659 3.08767 13.1275 3.65697 13.1275Z" fill="white"/>
<path d="M7.7105 13.128C8.27981 13.128 8.74132 12.6665 8.74132 12.0972C8.74132 11.5279 8.27981 11.0664 7.7105 11.0664C7.1412 11.0664 6.67969 11.5279 6.67969 12.0972C6.67969 12.6665 7.1412 13.128 7.7105 13.128Z" fill="white"/>
<path d="M11.7525 13.128C12.3218 13.128 12.7833 12.6665 12.7833 12.0972C12.7833 11.5279 12.3218 11.0664 11.7525 11.0664C11.1832 11.0664 10.7217 11.5279 10.7217 12.0972C10.7217 12.6665 11.1832 13.128 11.7525 13.128Z" fill="white"/>
</svg>
