<svg width="48" height="48" viewBox="0 0 48 48" fill="none" xmlns="http://www.w3.org/2000/svg">
<g clip-path="url(#clip0_217_3493)">
<g opacity="0.8">
<path d="M23.5816 43.9425C34.8271 43.9425 43.9434 34.8262 43.9434 23.5807C43.9434 12.3352 34.8271 3.21887 23.5816 3.21887C12.336 3.21887 3.21973 12.3352 3.21973 23.5807C3.21973 34.8262 12.336 43.9425 23.5816 43.9425Z" stroke="white" stroke-width="0.561469" stroke-miterlimit="10"/>
</g>
<g opacity="0.8">
<path d="M23.5816 47.083C36.5611 47.083 47.083 36.561 47.083 23.5815C47.083 10.602 36.5611 0.0800171 23.5816 0.0800171C10.6021 0.0800171 0.0800781 10.602 0.0800781 23.5815C0.0800781 36.561 10.6021 47.083 23.5816 47.083Z" stroke="white" stroke-width="0.137503" stroke-miterlimit="10"/>
</g>
<path d="M23.4929 40.4297C32.8469 40.4297 40.4297 32.8469 40.4297 23.4929C40.4297 14.139 32.8469 6.55615 23.4929 6.55615C14.139 6.55615 6.55615 14.139 6.55615 23.4929C6.55615 32.8469 14.139 40.4297 23.4929 40.4297Z" fill="white"/>
<g clip-path="url(#clip1_217_3493)">
<path d="M21.949 30.6062C21.8531 30.6061 21.7582 30.587 21.6697 30.5501C21.5812 30.5132 21.5009 30.4592 21.4333 30.3912L16.3308 25.2887C16.194 25.152 16.1172 24.9665 16.1172 24.773C16.1172 24.5796 16.194 24.3941 16.3308 24.2573C16.4676 24.1205 16.6531 24.0437 16.8465 24.0437C17.0399 24.0437 17.2255 24.1205 17.3622 24.2573L21.8889 28.7876L31.5854 16.6655C31.7062 16.5145 31.8821 16.4177 32.0743 16.3963C32.2666 16.3749 32.4594 16.4308 32.6104 16.5517C32.7615 16.6725 32.8583 16.8484 32.8797 17.0406C32.9011 17.2328 32.8452 17.4257 32.7243 17.5767L22.5194 30.3329C22.4553 30.4127 22.3751 30.4782 22.2841 30.525C22.193 30.5717 22.0931 30.5988 21.9909 30.6044L21.949 30.6062Z" fill="#0099D9"/>
</g>
</g>
<defs>
<clipPath id="clip0_217_3493">
<rect width="47.1519" height="47.1519" fill="white"/>
</clipPath>
<clipPath id="clip1_217_3493">
<rect width="16.7653" height="14.2159" fill="white" transform="translate(16.1172 16.3904)"/>
</clipPath>
</defs>
</svg>
