<svg width="22" height="22" viewBox="0 0 22 22" fill="none" xmlns="http://www.w3.org/2000/svg">
<rect width="21.2857" height="21.2857" rx="3.48946" fill="#0099D9" fill-opacity="0.15"/>
<g clip-path="url(#clip0_356_1262)">
<path d="M9.10643 16.0099C9.03891 16.0098 8.97209 15.9964 8.90978 15.9704C8.84746 15.9444 8.79089 15.9064 8.74329 15.8585L5.15042 12.2657C5.05411 12.1693 5 12.0387 5 11.9025C5 11.7663 5.05411 11.6357 5.15042 11.5394C5.24673 11.4431 5.37735 11.389 5.51355 11.389C5.64976 11.389 5.78038 11.4431 5.87669 11.5394L9.06408 14.7293L15.8918 6.1937C15.9769 6.08735 16.1007 6.01916 16.2361 6.00412C16.3715 5.98908 16.5073 6.02842 16.6136 6.1135C16.72 6.19858 16.7882 6.32243 16.8032 6.45779C16.8182 6.59315 16.7789 6.72894 16.6938 6.83529L9.50806 15.8175C9.46294 15.8737 9.40648 15.9198 9.34237 15.9527C9.27825 15.9856 9.20792 16.0047 9.13594 16.0087L9.10643 16.0099Z" fill="#0099D9"/>
</g>
<defs>
<clipPath id="clip0_356_1262">
<rect width="11.8052" height="10.01" fill="white" transform="translate(5 6)"/>
</clipPath>
</defs>
</svg>
