<svg width="32" height="32" viewBox="0 0 32 32" fill="none" xmlns="http://www.w3.org/2000/svg">
<circle cx="16" cy="16" r="16" fill="#00508D"/>
<g clip-path="url(#clip0_318_1149)">
<path d="M13.6554 22.5186C13.5673 22.5184 13.48 22.501 13.3987 22.4671C13.3174 22.4333 13.2435 22.3838 13.1814 22.3214L8.49222 17.642C8.36652 17.5166 8.2959 17.3465 8.2959 17.1691C8.2959 16.9917 8.36652 16.8216 8.49222 16.6961C8.61791 16.5707 8.78839 16.5002 8.96616 16.5002C9.14392 16.5002 9.31441 16.5707 9.44011 16.6961L13.6001 20.8507L22.5113 9.73391C22.6223 9.59541 22.784 9.50659 22.9606 9.487C23.1373 9.46742 23.3145 9.51866 23.4533 9.62946C23.5921 9.74027 23.6811 9.90157 23.7007 10.0779C23.7204 10.2542 23.669 10.431 23.558 10.5695L14.1796 22.2679C14.1207 22.3411 14.047 22.4011 13.9633 22.444C13.8796 22.4869 13.7878 22.5118 13.6939 22.5169L13.6554 22.5186Z" fill="white"/>
</g>
<defs>
<clipPath id="clip0_318_1149">
<rect width="15.4074" height="13.037" fill="white" transform="translate(8.29639 9.48145)"/>
</clipPath>
</defs>
</svg>
