<svg width="54" height="54" viewBox="0 0 54 54" fill="none" xmlns="http://www.w3.org/2000/svg">
<circle cx="27" cy="27" r="27" fill="#FF9900"/>
<g clip-path="url(#clip0_659_1247)">
<path d="M23.0434 38.0002C22.8947 37.9999 22.7475 37.9704 22.6103 37.9133C22.473 37.8562 22.3484 37.7726 22.2436 37.6674L14.3306 29.771C14.1184 29.5593 13.9993 29.2722 13.9993 28.9729C13.9993 28.6735 14.1184 28.3864 14.3306 28.1748C14.5427 27.9631 14.8304 27.8442 15.1303 27.8442C15.4303 27.8442 15.718 27.9631 15.9301 28.1748L22.9501 35.1857L37.9877 16.426C38.1751 16.1923 38.4479 16.0424 38.746 16.0093C39.0441 15.9763 39.3432 16.0628 39.5774 16.2498C39.8116 16.4367 39.9618 16.7089 39.9949 17.0064C40.0281 17.3039 39.9414 17.6024 39.754 17.8361L23.9279 37.5771C23.8286 37.7007 23.7042 37.802 23.563 37.8744C23.4218 37.9468 23.2669 37.9887 23.1084 37.9974L23.0434 38.0002Z" fill="white"/>
</g>
<defs>
<clipPath id="clip0_659_1247">
<rect width="26" height="22" fill="white" transform="translate(14 16)"/>
</clipPath>
</defs>
</svg>
