<svg width="32" height="32" viewBox="0 0 32 32" fill="none" xmlns="http://www.w3.org/2000/svg">
<g clip-path="url(#clip0_269_938)">
<path d="M31.1909 11.0423C32.239 14.2565 32.2422 17.7201 31.2001 20.9363C30.158 24.1524 28.1241 26.956 25.3902 28.9448C22.6562 30.9336 19.3627 32.0054 15.9819 32.0067C12.6011 32.0079 9.30679 30.9385 6.57139 28.9517C3.83598 26.965 1.80004 24.1629 0.755557 20.9475C-0.288928 17.7321 -0.288297 14.2685 0.757368 11.0535C1.80303 7.83853 3.84001 5.03727 6.57615 3.0515C9.31228 1.06574 12.607 -0.00248609 15.9878 4.34473e-06C19.3625 0.00249033 22.6501 1.07175 25.3806 3.05496C28.1111 5.03818 30.1448 7.83382 31.1909 11.0423ZM15.9878 1.44029C12.9145 1.43938 9.91983 2.41167 7.4332 4.21772C4.94657 6.02378 3.0957 8.57083 2.14596 11.4937C1.19622 14.4166 1.1964 17.5651 2.14647 20.4879C3.09654 23.4106 4.94771 25.9575 7.43454 27.7632C9.92138 29.569 12.9161 30.541 15.9894 30.5397C19.0627 30.5384 22.0567 29.564 24.5421 27.7562C27.0274 25.9484 28.8765 23.4001 29.8242 20.4766C30.7719 17.553 30.7695 14.4045 29.8173 11.4824C28.8663 8.56362 27.0164 6.02046 24.5324 4.21675C22.0484 2.41303 19.0576 1.44119 15.9878 1.44029Z" fill="#84BADE"/>
<path fill-rule="evenodd" clip-rule="evenodd" d="M18.1631 11.3905H19.6168V9.13672L18.8966 9.07002C18.4565 9.07002 18.0031 9.07002 17.563 9.07002C16.8921 9.06273 16.2353 9.26305 15.6826 9.6435C15.3753 9.86591 15.1163 10.1484 14.9214 10.474C14.7266 10.7995 14.5999 11.1612 14.5491 11.5372C14.4954 11.8544 14.4686 12.1757 14.469 12.4974C14.469 13.0042 14.469 13.511 14.469 14.0177V14.2044H12.3086V16.725H14.4557V23.0596H17.1229V16.7383H19.27C19.3767 15.8981 19.4834 15.0713 19.5901 14.2044H17.0829C17.0829 14.2044 17.0829 12.9642 17.0829 12.4174C17.0829 11.8706 17.563 11.4039 18.1631 11.3905Z" fill="#84BADE"/>
</g>
<defs>
<clipPath id="clip0_269_938">
<rect width="31.98" height="31.98" fill="white"/>
</clipPath>
</defs>
</svg>
