<svg width="30" height="14" viewBox="0 0 30 14" fill="none" xmlns="http://www.w3.org/2000/svg">
<g clip-path="url(#clip0_281_1151)">
<path d="M0.914721 14C0.409719 14 0 13.5912 0 13.0873C0 12.5834 0.409719 12.1745 0.914721 12.1745H29.0853C29.5903 12.1745 30 12.5834 30 13.0873C30 13.5912 29.5903 14 29.0853 14H0.914721Z" fill="#00508D"/>
<path d="M13.404 1.82547C12.899 1.82547 12.4893 1.41664 12.4893 0.912733C12.4893 0.408829 12.899 0 13.404 0H29.0853C29.5903 0 30 0.411205 30 0.912733C30 1.41426 29.5903 1.82547 29.0853 1.82547H13.404Z" fill="#00508D"/>
</g>
<defs>
<clipPath id="clip0_281_1151">
<rect width="30" height="14" fill="white"/>
</clipPath>
</defs>
</svg>
