<svg width="32" height="32" viewBox="0 0 32 32" fill="none" xmlns="http://www.w3.org/2000/svg">
<g clip-path="url(#clip0_269_939)">
<path d="M31.191 11.0423C32.2388 14.256 32.2422 17.719 31.2006 20.9347C30.159 24.1504 28.1259 26.9538 25.3929 28.9428C22.6598 30.9318 19.3671 32.0044 15.9869 32.0067C12.6067 32.009 9.31255 30.9409 6.57678 28.9556C3.841 26.9703 1.80412 24.1698 0.758139 20.9555C-0.287845 17.7412 -0.289206 14.2782 0.754273 11.0631C1.79775 7.84794 3.83246 5.0458 6.56668 3.05838C9.30091 1.07095 12.5942 0.000327196 15.9744 7.49839e-08C19.3515 -0.000326736 22.642 1.06764 25.3752 3.05105C28.1084 5.03446 30.1441 7.83165 31.191 11.0423ZM15.9878 1.44028C12.9145 1.43938 9.91982 2.41166 7.4332 4.21772C4.94657 6.02377 3.0957 8.57082 2.14596 11.4937C1.19622 14.4166 1.19642 17.5651 2.14649 20.4879C3.09656 23.4106 4.94771 25.9575 7.43454 27.7632C9.92137 29.569 12.9161 30.541 15.9894 30.5397C19.0627 30.5384 22.0567 29.564 24.5421 27.7562C27.0274 25.9484 28.8765 23.4001 29.8242 20.4766C30.7719 17.553 30.7695 14.4045 29.8173 11.4824C28.8656 8.56145 27.0137 6.01675 24.5271 4.21283C22.0404 2.40892 19.0465 1.43837 15.9744 1.44028H15.9878Z" fill="#84BADE"/>
<path d="M10.9758 13.549H13.643V21.9908H10.9758V13.549ZM12.3094 9.34814C12.6101 9.34814 12.904 9.43729 13.1541 9.60434C13.4041 9.7714 13.5989 10.0089 13.714 10.2867C13.8291 10.5645 13.8592 10.8701 13.8005 11.1651C13.7419 11.46 13.597 11.7309 13.3844 11.9435C13.1718 12.1561 12.9009 12.3009 12.606 12.3596C12.3111 12.4182 12.0054 12.3881 11.7276 12.273C11.4498 12.158 11.2124 11.9631 11.0453 11.7131C10.8782 11.4631 10.7891 11.1691 10.7891 10.8684C10.7891 10.4652 10.9493 10.0785 11.2344 9.79343C11.5195 9.50831 11.9062 9.34814 12.3094 9.34814Z" fill="#84BADE"/>
<path d="M15.2558 13.5496H17.7763V14.6699C18.031 14.2444 18.396 13.8958 18.8327 13.661C19.2694 13.4262 19.7615 13.314 20.2568 13.3363C22.9241 13.3363 23.4175 15.0833 23.4175 17.3371V21.9647H20.7503V17.8572C20.7503 16.8837 20.7503 15.6167 19.4167 15.6167C18.083 15.6167 17.843 16.6836 17.843 17.7905V21.9647H15.1758L15.2558 13.5496Z" fill="#84BADE"/>
</g>
<defs>
<clipPath id="clip0_269_939">
<rect width="31.98" height="31.98" fill="white"/>
</clipPath>
</defs>
</svg>
