<svg width="61" height="61" viewBox="0 0 61 61" fill="none" xmlns="http://www.w3.org/2000/svg">
<g clip-path="url(#clip0_525_1184)">
<path d="M37.8088 55.0185C35.7107 56.8107 33.2944 57.6848 30.4252 57.6848C27.5609 57.6848 25.1936 56.8671 23.1837 55.1923C22.8067 54.8789 22.246 54.9279 21.9327 55.305C21.6193 55.682 21.6683 56.2427 22.0453 56.5561C22.4541 56.8964 22.8777 57.2074 23.311 57.4865V60.1088C23.311 60.5984 23.7076 60.9975 24.1996 60.9975C24.6917 60.9975 25.0883 60.6009 25.0883 60.1088V58.4316C26.6894 59.1172 28.452 59.4575 30.413 59.4599H30.4375C32.4131 59.4575 34.2443 59.0706 35.9139 58.3141V60.1063C35.9139 60.596 36.3105 60.9951 36.8026 60.9951C37.2947 60.9951 37.6913 60.5985 37.6913 60.1063V57.3249C38.1295 57.0335 38.5555 56.7152 38.9643 56.3627C39.3364 56.0444 39.3805 55.4837 39.0622 55.1091C38.744 54.7369 38.1834 54.6929 37.8088 55.0111V55.0185Z" fill="#0099D9"/>
<path d="M57.1516 23.6836H34.9422C32.8197 23.6836 31.0938 25.4097 31.0938 27.5325V44.0765C31.0938 45.1048 31.4952 46.072 32.2223 46.7992L39.3709 53.9485C40.098 54.6757 41.065 55.0773 42.0932 55.0773H57.1516C59.2741 55.0773 61.0001 53.3511 61.0001 51.2283V27.535C61.0001 25.4122 59.2741 23.686 57.1516 23.686V23.6836ZM59.2252 51.2259C59.2252 52.3693 58.2949 53.2997 57.1516 53.2997H42.0932C41.5399 53.2997 41.0185 53.0843 40.6268 52.6925L33.4782 45.5431C33.0865 45.1514 32.8711 44.6298 32.8711 44.0765V27.5325C32.8711 26.3891 33.8014 25.4587 34.9447 25.4587H57.1541C58.2973 25.4587 59.2276 26.3891 59.2276 27.5325V51.2259H59.2252Z" fill="#0099D9"/>
<path d="M44.7153 34.9365C44.7153 31.9984 42.3235 29.6063 39.3857 29.6063C36.448 29.6063 34.0562 31.9984 34.0562 34.9365C34.0562 37.8746 36.448 40.2668 39.3857 40.2668C42.3235 40.2668 44.7153 37.8746 44.7153 34.9365ZM39.3857 38.4892C37.4272 38.4892 35.8335 36.8953 35.8335 34.9365C35.8335 32.9778 37.4272 31.3839 39.3857 31.3839C41.3442 31.3839 42.938 32.9778 42.938 34.9365C42.938 36.8953 41.3442 38.4892 39.3857 38.4892Z" fill="#0099D9"/>
<path d="M43.8265 41.4518C41.704 41.4518 39.978 43.1779 39.978 45.3007C39.978 47.4235 41.704 49.1496 43.8265 49.1496C45.949 49.1496 47.6749 47.4235 47.6749 45.3007C47.6749 43.1779 45.949 41.4518 43.8265 41.4518ZM43.8265 47.3745C42.6832 47.3745 41.7529 46.4441 41.7529 45.3007C41.7529 44.1573 42.6832 43.2269 43.8265 43.2269C44.9698 43.2269 45.9 44.1573 45.9 45.3007C45.9 46.4441 44.9698 47.3745 43.8265 47.3745Z" fill="#0099D9"/>
<path d="M29.9088 44.0765V27.5325C29.9088 25.4097 28.1828 23.6836 26.0603 23.6836H3.84846C1.72593 23.6836 0 25.4097 0 27.5325V51.2259C0 53.3487 1.72593 55.0748 3.84846 55.0748H18.9093C19.9376 55.0748 20.9046 54.6733 21.6317 53.9461L28.7802 46.7967C29.5073 46.0695 29.9088 45.1024 29.9088 44.0741V44.0765ZM28.1314 44.0765C28.1314 44.6298 27.916 45.1514 27.5243 45.5431L20.3758 52.6925C19.9841 53.0843 19.4651 53.2997 18.9093 53.2997H3.84846C2.70518 53.2997 1.77489 52.3693 1.77489 51.2259V27.5325C1.77489 26.3891 2.70518 25.4587 3.84846 25.4587H26.0579C27.2011 25.4587 28.1314 26.3891 28.1314 27.5325V44.0765Z" fill="#0099D9"/>
<path d="M21.6172 29.6063C18.6794 29.6063 16.2876 31.9984 16.2876 34.9365C16.2876 37.8746 18.6794 40.2668 21.6172 40.2668C24.5549 40.2668 26.9467 37.8746 26.9467 34.9365C26.9467 31.9984 24.5549 29.6063 21.6172 29.6063ZM21.6172 38.4917C19.6587 38.4917 18.0649 36.8977 18.0649 34.939C18.0649 32.9802 19.6587 31.3863 21.6172 31.3863C23.5757 31.3863 25.1694 32.9802 25.1694 34.939C25.1694 36.8977 23.5757 38.4917 21.6172 38.4917Z" fill="#0099D9"/>
<path d="M17.1761 41.4518C15.0536 41.4518 13.3276 43.1779 13.3276 45.3007C13.3276 47.4235 15.0536 49.1496 17.1761 49.1496C19.2986 49.1496 21.0245 47.4235 21.0245 45.3007C21.0245 43.1779 19.2986 41.4518 17.1761 41.4518ZM17.1761 47.3745C16.0328 47.3745 15.1025 46.4441 15.1025 45.3007C15.1025 44.1573 16.0328 43.2269 17.1761 43.2269C18.3194 43.2269 19.2497 44.1573 19.2497 45.3007C19.2497 46.4441 18.3194 47.3745 17.1761 47.3745Z" fill="#0099D9"/>
<path d="M41.9118 16.5856C41.7282 16.4167 41.4785 16.3334 41.2312 16.3579C31.1915 17.2834 24.442 18.8063 19.9839 21.1519C19.5506 21.3796 19.3817 21.9183 19.6118 22.3516C19.7709 22.6528 20.0794 22.8266 20.4001 22.8266C20.5397 22.8266 20.6816 22.7948 20.8138 22.7238C24.9194 20.5643 31.1719 19.1271 40.4454 18.2187C40.4943 19.4405 40.6388 20.6377 40.8762 21.791C40.9742 22.2708 41.4442 22.5818 41.9265 22.4814C42.4063 22.3835 42.7172 21.9134 42.6169 21.431C42.3402 20.0893 42.2007 18.6815 42.2031 17.2418C42.2031 16.992 42.0979 16.7521 41.9143 16.5856H41.9118Z" fill="#0099D9"/>
<path d="M10.3358 22.4937C10.823 22.4398 11.1755 22.0015 11.1217 21.5143C10.3432 14.3869 13.0214 8.51807 18.6619 4.98989C25.524 0.695359 35.4512 0.688014 42.2668 4.97275C47.8607 8.48869 50.5023 14.3625 49.7091 21.5118C49.6552 21.9991 50.0053 22.4398 50.4949 22.4937C50.5292 22.4986 50.561 22.4986 50.5953 22.4986C51.0409 22.4986 51.4277 22.1631 51.4766 21.7077C52.3506 13.8434 49.4177 7.36486 43.2142 3.46697C35.8502 -1.16299 25.1299 -1.15565 17.7218 3.48166C11.4718 7.3918 8.50219 13.8654 9.35903 21.7053C9.41289 22.1925 9.85356 22.5426 10.3383 22.4912L10.3358 22.4937Z" fill="#0099D9"/>
</g>
<defs>
<clipPath id="clip0_525_1184">
<rect width="61" height="61" fill="white"/>
</clipPath>
</defs>
</svg>
