<svg width="65" height="73" viewBox="0 0 65 73" fill="none" xmlns="http://www.w3.org/2000/svg">
<g clip-path="url(#clip0_525_1201)">
<path d="M42.666 35.0051C42.0924 35.0051 41.625 35.4739 41.625 36.0556C41.625 36.6373 42.0896 37.1061 42.666 37.1061H47.868C48.4416 37.1061 48.909 36.6373 48.909 36.0556C48.909 35.4739 48.4445 35.0051 47.868 35.0051H42.666Z" fill="#0099D9"/>
<path d="M58.2752 36.0556C58.2752 35.4768 57.8107 35.0051 57.2342 35.0051H52.0322C51.4587 35.0051 50.9912 35.4739 50.9912 36.0556C50.9912 36.6373 51.4558 37.1061 52.0322 37.1061H57.2342C57.8078 37.1061 58.2752 36.6373 58.2752 36.0556Z" fill="#0099D9"/>
<path d="M42.7665 48.7253L40.6014 50.181C40.1225 50.5022 39.9934 51.1533 40.3117 51.6366C40.5125 51.9405 40.8423 52.1055 41.1778 52.1055C41.3757 52.1055 41.5764 52.0476 41.7542 51.9289L43.9193 50.4733C44.3983 50.152 44.5273 49.5009 44.209 49.0176C43.8907 48.5343 43.2454 48.4041 42.7665 48.7253Z" fill="#0099D9"/>
<path d="M57.4692 38.8368L53.3856 41.5831C52.9067 41.9044 52.7776 42.5555 53.0959 43.0388C53.2967 43.3427 53.6265 43.5076 53.962 43.5076C54.1599 43.5076 54.3606 43.4497 54.5384 43.3311L58.622 40.5847C59.1009 40.2635 59.23 39.6124 58.9117 39.1291C58.5934 38.6458 57.9481 38.5156 57.4692 38.8368Z" fill="#0099D9"/>
<path d="M50.1162 43.7825L46.0325 46.5289C45.5536 46.8501 45.4246 47.5012 45.7429 47.9845C45.9436 48.2884 46.2734 48.4533 46.609 48.4533C46.8068 48.4533 47.0076 48.3955 47.1854 48.2768L51.269 45.5305C51.7479 45.2092 51.877 44.5581 51.5586 44.0748C51.2403 43.5915 50.5951 43.4613 50.1162 43.7825Z" fill="#0099D9"/>
<path d="M64.4092 36.5158C64.435 36.4637 64.4551 36.4116 64.4694 36.3566C64.4752 36.3364 64.4838 36.3161 64.4895 36.293C64.5067 36.2148 64.5182 36.1367 64.5182 36.0557C64.5182 35.9746 64.5067 35.8936 64.4895 35.8184C64.4838 35.7952 64.4752 35.7749 64.4694 35.7518C64.4522 35.6968 64.435 35.6447 64.4092 35.5955C64.3978 35.5724 64.3863 35.5492 64.3719 35.5261C64.3433 35.4798 64.3117 35.4335 64.2773 35.3929C64.263 35.3727 64.2486 35.3553 64.2314 35.338C64.1769 35.2801 64.1196 35.228 64.0565 35.1846L61.8914 33.7289C61.4125 33.4077 60.7672 33.5379 60.4489 34.0212C60.1593 34.4582 60.2424 35.0312 60.6152 35.3756C60.4575 35.5608 60.3571 35.7981 60.3571 36.0614C60.3571 36.3248 60.4575 36.5621 60.6152 36.7473C60.2424 37.0917 60.1621 37.6647 60.4489 38.1017C60.6496 38.4055 60.9794 38.5705 61.3149 38.5705C61.5128 38.5705 61.7136 38.5126 61.8914 38.394L64.0565 36.9383C64.1225 36.8949 64.1798 36.8399 64.2343 36.7849C64.2486 36.7676 64.263 36.7502 64.2773 36.7328C64.3117 36.6894 64.3461 36.6431 64.3748 36.5939C64.3863 36.5708 64.4006 36.5505 64.4092 36.5274V36.5158Z" fill="#0099D9"/>
<path d="M46.0325 25.5796L50.1162 28.3259C50.294 28.4446 50.4947 28.5025 50.6926 28.5025C51.0281 28.5025 51.3579 28.3375 51.5586 28.0337C51.877 27.5504 51.7479 26.8992 51.269 26.578L47.1854 23.8317C46.7065 23.5104 46.0612 23.6407 45.7429 24.1239C45.4246 24.6072 45.5536 25.2584 46.0325 25.5796Z" fill="#0099D9"/>
<path d="M58.625 31.5267L54.5413 28.7803C54.0624 28.4591 53.4172 28.5893 53.0989 29.0726C52.7805 29.5559 52.9096 30.207 53.3885 30.5283L57.4721 33.2746C57.6499 33.3933 57.8507 33.4511 58.0485 33.4511C58.3841 33.4511 58.7139 33.2862 58.9146 32.9823C59.2329 32.499 59.1039 31.8479 58.625 31.5267Z" fill="#0099D9"/>
<path d="M40.6014 21.9274L42.7665 23.3831C42.9443 23.5017 43.1451 23.5596 43.3429 23.5596C43.6785 23.5596 44.0082 23.3947 44.209 23.0908C44.5273 22.6075 44.3983 21.9564 43.9193 21.6351L41.7542 20.1795C41.2753 19.8583 40.6301 19.9885 40.3117 20.4718C39.9934 20.9551 40.1225 21.6062 40.6014 21.9274Z" fill="#0099D9"/>
<path d="M36.1566 58.2494C38.6486 51.466 39.9936 44.6421 40.1914 37.8152C40.2201 37.2364 40.2373 36.6519 40.2373 36.0557C40.2373 35.4596 40.2201 34.8721 40.1914 34.2962C39.9936 27.4694 38.6486 20.6455 36.1566 13.8621C38.4995 12.3196 39.572 9.36486 38.6601 6.60693L36.7158 0.720646C36.5351 0.170796 35.9472 -0.12728 35.3995 0.0550384C34.8546 0.237357 34.5592 0.83351 34.7428 1.38336L36.6871 7.26964C37.3639 9.32145 36.4003 11.5382 34.4445 12.4267C22.2022 17.9801 12.624 25.7128 5.91353 35.4364C5.89346 35.4654 5.87338 35.4914 5.85618 35.5203C5.07615 36.6548 4.33055 37.8181 3.62795 39.0075C2.17402 41.3864 0.978176 43.7999 0.0748424 46.1845C-0.131634 46.7257 0.137932 47.3334 0.674197 47.5418C0.797509 47.5881 0.923689 47.6112 1.047 47.6112C1.46569 47.6112 1.86144 47.3537 2.01916 46.937C2.87948 44.6739 4.01796 42.379 5.41168 40.0986C5.85331 39.3519 6.30928 38.6198 6.78245 37.8963C13.4241 47.0353 22.7184 54.3686 34.4503 59.6906C36.406 60.579 37.3725 62.7958 36.6928 64.8476L34.7485 70.7339C34.5678 71.2837 34.8603 71.8799 35.4052 72.0622C35.5142 72.0998 35.626 72.1172 35.735 72.1172C36.1709 72.1172 36.5781 71.8394 36.7215 71.3995L38.6658 65.5132C39.5778 62.7524 38.5052 59.8005 36.1623 58.2581L36.1566 58.2494ZM38.1123 37.575C37.7768 43.7334 35.4683 50.0045 32.2593 50.0045C28.7836 50.0045 26.3633 42.651 26.3633 36.0528C26.3633 29.4546 28.7836 22.1011 32.2593 22.1011C35.4683 22.1011 37.7797 28.3752 38.1123 34.5306C38.1382 35.5435 38.1382 36.5593 38.1123 37.5721V37.575ZM8.02418 36.0499C14.3131 27.18 23.1256 20.0493 34.2868 14.8084C35.2131 17.355 35.973 19.9104 36.5638 22.4686C35.3307 20.9059 33.8566 20.003 32.2622 20.003C27.7885 20.003 24.2842 27.0527 24.2842 36.0557C24.2842 45.0588 27.7885 52.1084 32.2622 52.1084C33.8595 52.1084 35.3307 51.2055 36.5638 49.6428C35.973 52.1981 35.2159 54.7506 34.2897 57.2944C23.117 52.0477 14.2873 44.9083 8.02704 36.0499H8.02418Z" fill="#0099D9"/>
<path d="M29.7812 36.0557C29.7812 39.7078 31.2409 42.3558 33.2512 42.3558C35.2615 42.3558 36.7211 39.7049 36.7211 36.0557C36.7211 32.4064 35.2615 29.7556 33.2512 29.7556C31.2409 29.7556 29.7812 32.4064 29.7812 36.0557ZM34.6363 36.0557C34.6363 38.8107 33.6068 40.2548 33.2483 40.2548C32.8899 40.2548 31.8604 38.8107 31.8604 36.0557C31.8604 33.3006 32.8899 31.8537 33.2483 31.8537C33.6068 31.8537 34.6363 33.2977 34.6363 36.0557Z" fill="#0099D9"/>
</g>
<defs>
<clipPath id="clip0_525_1201">
<rect width="64.5181" height="72.1084" fill="white"/>
</clipPath>
</defs>
</svg>
