<svg width="32" height="32" viewBox="0 0 32 32" fill="none" xmlns="http://www.w3.org/2000/svg">
<g clip-path="url(#clip0_269_940)">
<path d="M31.1935 11.0438C32.25 14.2554 32.2623 17.7191 31.2286 20.938C30.1948 24.157 28.1682 26.9659 25.4393 28.9618C22.7105 30.9577 19.4196 32.0382 16.0388 32.0481C12.6579 32.0581 9.36072 30.997 6.62017 29.0172C3.87961 27.0374 1.83646 24.2405 0.783783 21.0277C-0.268894 17.8149 -0.277022 14.3512 0.760565 11.1334C1.79815 7.91571 3.82815 5.10926 6.55938 3.11659C9.29062 1.12393 12.5828 0.0474395 15.9636 0.0415284C19.338 0.0356287 22.6278 1.09648 25.3631 3.07247C28.0983 5.04847 30.139 7.83848 31.1935 11.0438ZM15.9903 1.4418C12.917 1.4409 9.92237 2.41319 7.43575 4.21924C4.94912 6.02529 3.09823 8.57235 2.14849 11.4952C1.19875 14.4181 1.19895 17.5666 2.14902 20.4894C3.09909 23.4122 4.95026 25.959 7.43709 27.7648C9.92392 29.5705 12.9187 30.5425 15.992 30.5412C19.0653 30.54 22.0592 29.5656 24.5446 27.7578C27.03 25.95 28.879 23.4016 29.8267 20.4781C30.7744 17.5546 30.772 14.406 29.8199 11.4839C28.8674 8.5608 27.0135 6.01456 24.5242 4.21045C22.0348 2.40633 19.038 1.43708 15.9636 1.4418H15.9903Z" fill="#84BADE"/>
<g clip-path="url(#clip1_269_940)">
<path d="M11.0829 11.766C10.9614 11.766 10.8589 11.8087 10.8075 11.8922C10.7543 11.9784 10.7624 12.0895 10.8191 12.2019L12.1844 14.5651C12.1854 14.5668 12.186 14.5687 12.186 14.5707C12.186 14.5727 12.1854 14.5746 12.1844 14.5763L10.039 18.3622C9.983 18.4736 9.9858 18.5856 10.039 18.6719C10.0905 18.755 10.1813 18.8096 10.3029 18.8096H12.322C12.6239 18.8096 12.7696 18.6059 12.8727 18.4197C12.8727 18.4197 14.9708 14.709 15.0525 14.5649C15.0443 14.5516 13.6644 12.1443 13.6644 12.1443C13.5636 11.9651 13.412 11.7656 13.1023 11.7656H11.0829V11.766Z" fill="#84BADE"/>
<path d="M19.565 9.00098C19.2634 9.00098 19.1327 9.19098 19.0244 9.38558C19.0244 9.38558 14.6746 17.0996 14.5312 17.3528C14.5386 17.3665 17.4001 22.6162 17.4001 22.6162C17.5004 22.7954 17.655 23.0008 17.9643 23.0008H19.9811C20.1027 23.0008 20.1978 22.955 20.249 22.872C20.3029 22.7858 20.3014 22.6719 20.2449 22.5599L17.3984 17.3592C17.3971 17.3573 17.3963 17.355 17.3963 17.3526C17.3963 17.3502 17.3971 17.3479 17.3984 17.346L21.8688 9.44158C21.9248 9.33003 21.9262 9.21618 21.8731 9.12994C21.8216 9.04678 21.7262 9.00114 21.6043 9.00114H19.5648L19.565 9.00098Z" fill="#84BADE"/>
</g>
</g>
<defs>
<clipPath id="clip0_269_940">
<rect width="31.98" height="31.98" fill="white"/>
</clipPath>
<clipPath id="clip1_269_940">
<rect width="11.9144" height="14" fill="white" transform="translate(10 9)"/>
</clipPath>
</defs>
</svg>
