<svg width="32" height="32" viewBox="0 0 32 32" fill="none" xmlns="http://www.w3.org/2000/svg">
<g clip-path="url(#clip0_269_941)">
<path d="M31.1935 11.0438C32.25 14.2554 32.2623 17.7191 31.2286 20.938C30.1948 24.157 28.1682 26.9659 25.4393 28.9618C22.7105 30.9577 19.4196 32.0382 16.0388 32.0481C12.6579 32.0581 9.36072 30.997 6.62017 29.0172C3.87961 27.0374 1.83646 24.2405 0.783783 21.0277C-0.268894 17.8149 -0.277022 14.3512 0.760565 11.1334C1.79815 7.91571 3.82815 5.10926 6.55938 3.11659C9.29062 1.12393 12.5828 0.0474395 15.9636 0.0415284C19.338 0.0356287 22.6278 1.09648 25.3631 3.07247C28.0983 5.04847 30.139 7.83848 31.1935 11.0438ZM15.9903 1.4418C12.917 1.4409 9.92237 2.41319 7.43575 4.21924C4.94912 6.02529 3.09823 8.57235 2.14849 11.4952C1.19875 14.4181 1.19895 17.5666 2.14902 20.4894C3.09909 23.4122 4.95026 25.959 7.43709 27.7648C9.92392 29.5705 12.9187 30.5425 15.992 30.5412C19.0653 30.54 22.0592 29.5656 24.5446 27.7578C27.03 25.95 28.879 23.4016 29.8267 20.4781C30.7744 17.5546 30.772 14.406 29.8199 11.4839C28.8674 8.5608 27.0135 6.01456 24.5242 4.21045C22.0348 2.40633 19.038 1.43708 15.9636 1.4418H15.9903Z" fill="#84BADE"/>
<g clip-path="url(#clip1_269_941)">
<path fill-rule="evenodd" clip-rule="evenodd" d="M10.5826 20.1277C10.3347 20.0554 10.1084 19.9234 9.92342 19.7431C9.73847 19.5629 9.60058 19.3401 9.52186 19.0941C9.05948 17.843 8.92349 12.5527 9.80746 11.5056C10.0967 11.1568 10.5123 10.9367 10.9634 10.8936C14.4957 10.6325 18.0433 10.6598 21.5711 10.9752C21.811 11.0516 22.0302 11.1821 22.2117 11.3566C22.3933 11.5311 22.5324 11.7449 22.6183 11.9816C23.1623 14.3901 23.1623 16.8896 22.6183 19.2981C22.458 19.6263 22.1955 19.8935 21.8703 20.0597C20.9183 20.5221 11.7522 20.5221 10.5826 20.1277ZM14.3769 17.6526L18.6744 15.4222L14.3769 13.1783V17.6526Z" fill="#84BADE"/>
</g>
</g>
<defs>
<clipPath id="clip0_269_941">
<rect width="31.98" height="31.98" fill="white"/>
</clipPath>
<clipPath id="clip1_269_941">
<rect width="13.8308" height="9.69651" fill="white" transform="translate(9.16797 10.7168)"/>
</clipPath>
</defs>
</svg>
