<svg width="20" height="20" viewBox="0 0 20 20" fill="none" xmlns="http://www.w3.org/2000/svg">
<path d="M11.574 10.007L19.6525 1.92118C19.8529 1.71087 19.963 1.43068 19.9596 1.14035C19.9561 0.850021 19.8393 0.572528 19.634 0.367039C19.4287 0.161551 19.1512 0.0443218 18.8606 0.0403503C18.5701 0.0363787 18.2894 0.145978 18.0786 0.345778L10 8.43156L1.92144 0.345778C1.8189 0.238134 1.69583 0.15209 1.55949 0.0927174C1.42314 0.0333444 1.27629 0.00184894 1.12757 7.89841e-05C0.978849 -0.00169097 0.831278 0.0263025 0.693558 0.0824138C0.555838 0.138525 0.430746 0.221612 0.325671 0.326785C0.220596 0.431958 0.137665 0.557086 0.081751 0.69479C0.0258366 0.832495 -0.00193018 0.979992 0.000104227 1.12858C0.00213864 1.27718 0.0339214 1.42386 0.0935849 1.55998C0.153248 1.69611 0.239588 1.81892 0.347503 1.92118L8.42608 10.007L0.347503 18.0788C0.239588 18.1811 0.153248 18.3039 0.0935849 18.44C0.0339214 18.5761 0.00213864 18.7228 0.000104227 18.8714C-0.00193018 19.02 0.0258366 19.1675 0.081751 19.3052C0.137665 19.4429 0.220596 19.568 0.325671 19.6732C0.430746 19.7784 0.555838 19.8615 0.693558 19.9176C0.831278 19.9737 0.978849 20.0017 1.12757 19.9999C1.27629 19.9981 1.42314 19.9666 1.55949 19.9073C1.69583 19.8479 1.8189 19.7619 1.92144 19.6542L10 11.5824L18.0786 19.6542C18.1811 19.7619 18.3042 19.8479 18.4405 19.9073C18.5769 19.9666 18.7237 19.9981 18.8724 19.9999C19.0212 20.0017 19.1687 19.9737 19.3065 19.9176C19.4442 19.8615 19.5693 19.7784 19.6743 19.6732C19.7794 19.568 19.8624 19.4429 19.9183 19.3052C19.9742 19.1675 20.0019 19.02 19.9999 18.8714C19.9979 18.7228 19.9661 18.5761 19.9064 18.44C19.8468 18.3039 19.7604 18.1811 19.6525 18.0788L11.574 10.007Z" fill="#00508D"/>
</svg>
