<svg width="34" height="34" viewBox="0 0 34 34" fill="none" xmlns="http://www.w3.org/2000/svg">
<circle cx="19.71" cy="14.2901" r="14.2901" fill="#0099D9" fill-opacity="0.5"/>
<path d="M15.4596 6.61463C15.4596 6.29828 15.5853 5.99488 15.809 5.77119C16.0326 5.5475 16.336 5.42183 16.6524 5.42183C19.8148 5.4253 22.8467 6.68311 25.0828 8.9193C27.319 11.1555 28.5768 14.1874 28.5802 17.3498C28.5802 17.6662 28.4546 17.9696 28.2309 18.1933C28.0072 18.417 27.7038 18.5427 27.3874 18.5427C27.0711 18.5427 26.7677 18.417 26.544 18.1933C26.3203 17.9696 26.1947 17.6662 26.1947 17.3498C26.1918 14.8199 25.1856 12.3944 23.3966 10.6055C21.6077 8.81654 19.1823 7.81027 16.6524 7.80743C16.336 7.80743 16.0326 7.68176 15.809 7.45807C15.5853 7.23437 15.4596 6.93098 15.4596 6.61463V6.61463ZM16.6524 12.5786C17.9178 12.5786 19.1313 13.0813 20.0261 13.9761C20.9208 14.8709 21.4235 16.0844 21.4235 17.3498C21.4235 17.6662 21.5492 17.9696 21.7729 18.1933C21.9966 18.417 22.3 18.5427 22.6163 18.5427C22.9326 18.5427 23.236 18.417 23.4597 18.1933C23.6834 17.9696 23.8091 17.6662 23.8091 17.3498C23.8072 15.4523 23.0526 13.6331 21.7108 12.2913C20.3691 10.9496 18.5499 10.1949 16.6524 10.193C16.336 10.193 16.0326 10.3187 15.809 10.5424C15.5853 10.7661 15.4596 11.0695 15.4596 11.3858C15.4596 11.7022 15.5853 12.0056 15.809 12.2293C16.0326 12.453 16.336 12.5786 16.6524 12.5786V12.5786ZM27.4984 25.3881C28.1896 26.0813 28.5778 27.0203 28.5778 27.9992C28.5778 28.9781 28.1896 29.9171 27.4984 30.6102L26.4129 31.8615C16.644 41.2142 -7.12817 17.4477 2.08013 7.6476L3.45183 6.45479C4.14575 5.78286 5.07632 5.41115 6.0422 5.42008C7.00809 5.42901 7.93162 5.81786 8.61301 6.50251C8.64998 6.53948 10.8602 9.41056 10.8602 9.41056C11.516 10.0996 11.8811 11.0148 11.8796 11.966C11.878 12.9172 11.5099 13.8313 10.8519 14.5181L9.47062 16.2549C10.235 18.1122 11.3589 19.8002 12.7776 21.2218C14.1964 22.6434 15.8821 23.7707 17.7378 24.5389L19.4852 23.1493C20.1722 22.4917 21.086 22.124 22.037 22.1227C22.9879 22.1214 23.9028 22.4864 24.5916 23.1421C24.5916 23.1421 27.4614 25.3512 27.4984 25.3881ZM25.8571 27.1225C25.8571 27.1225 23.0028 24.9265 22.9658 24.8895C22.7201 24.6459 22.388 24.5092 22.042 24.5092C21.6959 24.5092 21.3639 24.6459 21.1182 24.8895C21.086 24.9229 18.6801 26.8398 18.6801 26.8398C18.518 26.9688 18.325 27.0534 18.1203 27.0852C17.9155 27.117 17.706 27.0949 17.5124 27.0211C15.1083 26.126 12.9246 24.7246 11.1093 22.912C9.29401 21.0993 7.88947 18.9177 6.99082 16.5149C6.91114 16.3186 6.88516 16.1047 6.91556 15.895C6.94596 15.6854 7.03163 15.4876 7.16377 15.3221C7.16377 15.3221 9.08058 12.915 9.11278 12.884C9.35643 12.6383 9.49314 12.3062 9.49314 11.9602C9.49314 11.6141 9.35643 11.2821 9.11278 11.0363C9.07581 11.0006 6.87989 8.1438 6.87989 8.1438C6.63048 7.92016 6.30497 7.80039 5.97009 7.80904C5.63521 7.81769 5.31632 7.9541 5.07879 8.19032L3.70708 9.38312C-3.02261 17.4751 17.578 36.9333 24.6691 30.2321L25.7557 28.9797C26.0103 28.7438 26.1633 28.4182 26.1822 28.0716C26.2011 27.725 26.0845 27.3847 25.8571 27.1225V27.1225Z" fill="#00508D"/>
</svg>
