<svg width="32" height="32" viewBox="0 0 32 32" fill="none" xmlns="http://www.w3.org/2000/svg">
<g clip-path="url(#clip0_269_937)">
<path d="M31.191 11.0423C32.239 14.2565 32.2422 17.7201 31.2001 20.9363C30.158 24.1524 28.1241 26.956 25.3902 28.9448C22.6562 30.9336 19.3627 32.0054 15.9819 32.0067C12.6011 32.0079 9.3068 30.9385 6.5714 28.9517C3.83599 26.965 1.80003 24.1629 0.755547 20.9475C-0.288938 17.7321 -0.288286 14.2685 0.757379 11.0535C1.80304 7.83853 3.84 5.03727 6.57614 3.0515C9.31227 1.06574 12.607 -0.00248609 15.9878 4.34473e-06C19.3625 0.00249033 22.6501 1.07175 25.3806 3.05496C28.1111 5.03818 30.1448 7.83382 31.191 11.0423ZM15.9878 1.44029C12.9145 1.43938 9.91984 2.41167 7.43321 4.21772C4.94658 6.02378 3.09569 8.57083 2.14595 11.4937C1.19621 14.4166 1.19641 17.5651 2.14648 20.4879C3.09656 23.4106 4.94772 25.9575 7.43455 27.7632C9.92139 29.569 12.9161 30.541 15.9894 30.5397C19.0627 30.5384 22.0567 29.564 24.5421 27.7562C27.0274 25.9484 28.8765 23.4001 29.8242 20.4766C30.7719 17.553 30.7695 14.4045 29.8173 11.4824C28.8663 8.56362 27.0164 6.02046 24.5324 4.21675C22.0484 2.41303 19.0576 1.44119 15.9878 1.44029Z" fill="#84BADE"/>
<path fill-rule="evenodd" clip-rule="evenodd" d="M20.0717 10.0415H11.8967C11.4051 10.0415 10.9335 10.2368 10.5859 10.5844C10.2383 10.9321 10.043 11.4036 10.043 11.8952V20.0435C10.043 20.5352 10.2383 21.0067 10.5859 21.3543C10.9335 21.702 11.4051 21.8973 11.8967 21.8973H20.0717C20.3185 21.9026 20.5639 21.8586 20.7934 21.7678C21.023 21.677 21.2321 21.5414 21.4085 21.3687C21.5849 21.196 21.725 20.9898 21.8206 20.7623C21.9163 20.5347 21.9655 20.2904 21.9655 20.0435V11.8685C21.962 11.6239 21.9102 11.3824 21.8129 11.158C21.7157 10.9335 21.575 10.7305 21.399 10.5607C21.223 10.3908 21.0151 10.2575 20.7873 10.1684C20.5595 10.0793 20.3163 10.0361 20.0717 10.0415ZM18.5381 11.6818C18.538 11.5956 18.5713 11.5128 18.631 11.4506C18.6906 11.3885 18.772 11.3519 18.8581 11.3484H20.2984C20.3869 11.3484 20.4717 11.3835 20.5342 11.446C20.5967 11.5086 20.6318 11.5934 20.6318 11.6818V13.1087C20.6318 13.1972 20.5967 13.282 20.5342 13.3445C20.4717 13.407 20.3869 13.4421 20.2984 13.4421H18.8581C18.772 13.4387 18.6906 13.4021 18.631 13.3399C18.5713 13.2778 18.538 13.1949 18.5381 13.1087V11.6818ZM13.7904 15.1225C13.9649 14.6831 14.2673 14.3063 14.6585 14.0408C15.0496 13.7753 15.5115 13.6333 15.9842 13.6333C16.457 13.6333 16.9188 13.7753 17.3099 14.0408C17.7011 14.3063 18.0035 14.6831 18.178 15.1225C18.2849 15.3943 18.3392 15.684 18.338 15.976C18.3624 16.3 18.3197 16.6256 18.2125 16.9323C18.1052 17.239 17.9358 17.5203 17.7149 17.7585C17.4939 17.9967 17.2262 18.1868 16.9284 18.3168C16.6306 18.4467 16.3091 18.5138 15.9842 18.5138C15.6593 18.5138 15.3379 18.4467 15.0401 18.3168C14.7423 18.1868 14.4745 17.9967 14.2535 17.7585C14.0326 17.5203 13.8632 17.239 13.756 16.9323C13.6487 16.6256 13.606 16.3 13.6304 15.976C13.6292 15.684 13.6835 15.3943 13.7904 15.1225ZM20.6318 20.0435C20.6318 20.2027 20.5686 20.3554 20.4561 20.4679C20.3435 20.5804 20.1909 20.6437 20.0317 20.6437H11.8567C11.7046 20.6335 11.562 20.5658 11.458 20.4543C11.3539 20.3429 11.2962 20.196 11.2966 20.0435V15.0959H12.4702C12.333 15.6316 12.3201 16.1915 12.4325 16.733C12.5449 17.2744 12.7796 17.783 13.1187 18.2198C13.4578 18.6567 13.8923 19.0102 14.3889 19.2534C14.8855 19.4966 15.4312 19.623 15.9842 19.623C16.5372 19.623 17.0829 19.4966 17.5795 19.2534C18.0762 19.0102 18.5106 18.6567 18.8497 18.2198C19.1888 17.783 19.4235 17.2744 19.5359 16.733C19.6483 16.1915 19.6354 15.6316 19.4983 15.0959H20.6318V20.0435Z" fill="#84BADE"/>
</g>
<defs>
<clipPath id="clip0_269_937">
<rect width="31.98" height="31.98" fill="white"/>
</clipPath>
</defs>
</svg>
