<svg width="105" height="12" viewBox="0 0 105 12" fill="none" xmlns="http://www.w3.org/2000/svg">
<g clip-path="url(#clip0_217_1610)">
<path d="M0 5.90112V5.868C0 2.65824 2.39987 0 5.73881 0C7.7975 0 9.02973 0.730395 10.1642 1.80032L9.2881 2.74105C8.33246 1.83344 7.26088 1.1842 5.72225 1.1842C3.20976 1.1842 1.32829 3.22632 1.32829 5.83653V5.86966C1.32829 8.49643 3.22467 10.5551 5.72225 10.5551C7.2791 10.5551 8.29934 9.95556 9.38582 8.91711L10.2288 9.74356C9.04464 10.9427 7.74781 11.7377 5.68913 11.7377C2.41477 11.7377 0 9.15892 0 5.90112Z" fill="#0061A1"/>
<path d="M16.2394 0.114159H17.4385L22.6092 11.5438H21.2313L19.9013 8.54434H13.7253L12.3804 11.5438H11.067L16.2394 0.114159ZM19.4011 7.3767L16.824 1.60476L14.2304 7.3767H19.4011Z" fill="#0061A1"/>
<path d="M24.5485 0.19342H29.4277C30.8222 0.19342 31.9402 0.614101 32.654 1.32793C33.2055 1.87946 33.5302 2.67279 33.5302 3.56549V3.59862C33.5302 5.47843 32.2333 6.58147 30.4496 6.9061L33.9359 11.5419H32.3625L29.0716 7.133H25.8287V11.5419H24.5485V0.19342ZM29.3151 5.98027C31.0177 5.98027 32.2333 5.10412 32.2333 3.64499V3.61187C32.2333 2.21733 31.1634 1.37431 29.3316 1.37431H25.8304V5.97861H29.3151V5.98027Z" fill="#0061A1"/>
<path d="M36.0975 0.19342H44.3008V1.36106H37.3777V5.23496H43.5704V6.4026H37.3777V10.3742H44.3803V11.5419H36.0958V0.19342H36.0975Z" fill="#0061A1"/>
<path d="M49.1321 0.19342H50.5581L54.5943 9.96845L58.6487 0.19342H60.0267L55.1475 11.623H54.013L49.1321 0.19342Z" fill="#0061A1"/>
<path d="M62.3021 0.19342H63.5824V11.5419H62.3021V0.19342Z" fill="#0061A1"/>
<path d="M66.1515 9.88922L66.9465 8.94849C68.129 10.0184 69.2652 10.5534 70.8369 10.5534C72.4087 10.5534 73.366 9.74347 73.366 8.62387V8.59074C73.366 7.53738 72.7996 6.93783 70.4163 6.43434C67.8061 5.86791 66.607 5.02324 66.607 3.15999V3.12686C66.607 1.34311 68.1787 0.0297241 70.3351 0.0297241C71.988 0.0297241 73.1722 0.500092 74.3233 1.42426L73.578 2.41303C72.5246 1.55345 71.4713 1.1808 70.3036 1.1808C68.8279 1.1808 67.8889 1.99069 67.8889 3.01258V3.04571C67.8889 4.11563 68.4719 4.71518 70.9694 5.25014C73.4985 5.80166 74.6661 6.72583 74.6661 8.4599V8.49302C74.6661 10.4391 73.0447 11.7028 70.7922 11.7028C68.9936 11.7028 67.5179 11.1032 66.1548 9.88756L66.1515 9.88922Z" fill="#0061A1"/>
<path d="M77.1584 0.19342H78.4387V11.5419H77.1584V0.19342Z" fill="#0061A1"/>
<path d="M94.8125 0.19342H96.0116L103.162 9.28774V0.19342H104.41V11.5419H103.388L96.0613 2.2372V11.5419H94.8125V0.19342Z" fill="#0061A1"/>
<path d="M86.6257 8.14006C87.8807 8.14006 88.8981 7.1227 88.8981 5.86772C88.8981 4.61274 87.8807 3.59538 86.6257 3.59538C85.3708 3.59538 84.3534 4.61274 84.3534 5.86772C84.3534 7.1227 85.3708 8.14006 86.6257 8.14006Z" fill="#0061A1"/>
<path d="M86.6258 -7.62939e-05C86.23 -7.62939e-05 85.8424 0.0396731 85.4681 0.114203C86.4917 0.319575 87.4175 0.789942 88.1728 1.45243C89.9963 2.09173 91.3047 3.8258 91.3047 5.86792C91.3047 7.91005 89.9963 9.64411 88.1728 10.2834C87.4175 10.9459 86.49 11.4163 85.4681 11.6216C85.8424 11.6962 86.23 11.7359 86.6258 11.7359C89.8671 11.7359 92.4938 9.10915 92.4938 5.86792C92.4938 2.62669 89.8671 -7.62939e-05 86.6258 -7.62939e-05Z" fill="#0061A1"/>
<path d="M85.468 0.11412C84.9281 0.221775 84.4147 0.407272 83.9393 0.652393V2.04196C84.3964 1.72066 84.9115 1.47554 85.468 1.3331C85.839 1.2387 86.2266 1.18901 86.6257 1.18901C87.1673 1.18901 87.689 1.28176 88.1726 1.45235C87.4174 0.78986 86.4899 0.319492 85.468 0.11412Z" fill="#0098D8"/>
<path d="M85.1333 10.4739L85.0787 10.2851C83.2552 9.64578 81.9467 7.91171 81.9467 5.86959C81.9467 4.76654 82.331 3.75459 82.9703 2.95464L82.5827 1.61972C81.4598 2.68798 80.7576 4.1968 80.7576 5.86959C80.7576 7.63015 81.5343 9.21019 82.7633 10.2851C83.5185 10.9476 84.446 11.4179 85.4679 11.6233L85.1333 10.4739Z" fill="#8FC4EB"/>
<path d="M86.6257 10.5465C86.2265 10.5465 85.8373 10.4968 85.4679 10.4024C85.3354 10.3693 85.2063 10.3296 85.0787 10.2849L85.4679 11.6231C86.4915 11.4177 87.4173 10.9473 88.1726 10.2849C87.6889 10.4538 87.1672 10.5482 86.6257 10.5482V10.5465Z" fill="#0098D8"/>
</g>
<defs>
<clipPath id="clip0_217_1610">
<rect width="104.41" height="11.7377" fill="white"/>
</clipPath>
</defs>
</svg>
