<svg width="44" height="44" viewBox="0 0 44 44" fill="none" xmlns="http://www.w3.org/2000/svg">
<g clip-path="url(#clip0_289_1149)">
<g opacity="0.8">
<path d="M21.9806 40.9592C32.4627 40.9592 40.9601 32.4618 40.9601 21.9797C40.9601 11.4976 32.4627 3.0002 21.9806 3.0002C11.4985 3.0002 3.00113 11.4976 3.00113 21.9797C3.00113 32.4618 11.4985 40.9592 21.9806 40.9592Z" stroke="#0099D9" stroke-width="0.523351" stroke-miterlimit="10"/>
</g>
<g opacity="0.8">
<path d="M21.9806 43.8866C34.079 43.8866 43.8866 34.0789 43.8866 21.9806C43.8866 9.88224 34.079 0.0746002 21.9806 0.0746002C9.88229 0.0746002 0.074646 9.88224 0.074646 21.9806C0.074646 34.0789 9.88229 43.8866 21.9806 43.8866Z" stroke="#0099D9" stroke-width="0.128168" stroke-miterlimit="10"/>
</g>
<path d="M21.898 37.6849C30.6169 37.6849 37.685 30.6169 37.685 21.898C37.685 13.1791 30.6169 6.11102 21.898 6.11102C13.1791 6.11102 6.11105 13.1791 6.11105 21.898C6.11105 30.6169 13.1791 37.6849 21.898 37.6849Z" fill="#0099D9"/>
<g clip-path="url(#clip1_289_1149)">
<path d="M27.8639 24.4345C27.5717 24.236 27.2795 24.0142 26.998 23.7992C25.864 22.9379 24.5785 21.9629 23.5558 23.0077C22.9352 23.6417 22.4003 23.4979 22.2596 23.4445C22.076 23.2871 21.3133 22.6229 20.5251 21.8301C19.5238 20.8168 19.4259 20.3636 19.9983 19.4051C20.9259 17.8551 20.5345 17.2799 19.2276 15.3753L19.1699 15.2917C18.4903 14.3004 17.9408 13.8457 17.3309 13.7691C16.6111 13.6814 15.9583 14.1662 15.4141 14.6523C14.0737 15.849 13.7801 17.8017 14.6447 19.7406C15.2532 21.1099 17.0574 24.5564 20.6404 27.0157C22.4459 28.248 23.9418 29.0381 25.3117 29.0381C26.2165 29.0381 27.0663 28.6944 27.9121 27.9125C28.5743 27.2977 28.8839 26.6542 28.8317 25.9955C28.7552 25.0535 27.9349 24.4825 27.8639 24.4345ZM27.3733 27.3005C25.8238 28.7355 24.2394 28.4918 21.0907 26.331C17.6767 23.9895 15.9583 20.7032 15.3779 19.3983C14.6554 17.7756 14.8672 16.2311 15.9449 15.2684C16.4743 14.7947 16.8537 14.5838 17.1593 14.5838C17.1843 14.5824 17.2094 14.5824 17.2344 14.5838C17.5856 14.6276 17.9917 15.0014 18.5131 15.7614L18.5708 15.8463C19.8616 17.7304 19.9675 17.8838 19.3133 18.9751C18.4421 20.4321 18.8683 21.3029 19.9608 22.4121C20.8897 23.3514 21.7556 24.0826 21.7918 24.1141C21.8141 24.1334 21.8389 24.1495 21.8655 24.162C21.9111 24.1867 23.0022 24.7344 24.1254 23.5869C24.6053 23.0967 25.2541 23.4966 26.5194 24.4578C26.8103 24.6783 27.1106 24.9069 27.4202 25.1178C27.4269 25.1178 27.9818 25.5026 28.0274 26.0613C28.0609 26.4529 27.8397 26.8691 27.3733 27.3005Z" fill="white"/>
<path d="M25.8188 21.0906H26.623C26.6216 19.805 26.1214 18.5723 25.232 17.6627C24.3426 16.7531 23.1365 16.2407 21.878 16.2378V17.0594C22.9232 17.0623 23.9247 17.4881 24.6633 18.2436C25.4019 18.9992 25.8174 20.0229 25.8188 21.0906Z" fill="white"/>
<path d="M28.0439 21.0909H28.8481C28.8446 19.2036 28.1091 17.3946 26.8027 16.06C25.4963 14.7255 23.7255 13.9742 21.878 13.9705V14.7921C23.5123 14.7954 25.0788 15.46 26.2344 16.6406C27.39 17.8211 28.0407 19.4213 28.0439 21.0909Z" fill="white"/>
</g>
</g>
<defs>
<clipPath id="clip0_289_1149">
<rect width="43.9508" height="43.9508" fill="white"/>
</clipPath>
<clipPath id="clip1_289_1149">
<rect width="14.6923" height="15.28" fill="white" transform="translate(14.1558 13.7594)"/>
</clipPath>
</defs>
</svg>
