<svg width="44" height="44" viewBox="0 0 44 44" fill="none" xmlns="http://www.w3.org/2000/svg">
<g clip-path="url(#clip0_289_1150)">
<g opacity="0.8">
<path d="M21.9806 40.9592C32.4626 40.9592 40.96 32.4618 40.96 21.9797C40.96 11.4976 32.4626 3.0002 21.9806 3.0002C11.4985 3.0002 3.00107 11.4976 3.00107 21.9797C3.00107 32.4618 11.4985 40.9592 21.9806 40.9592Z" stroke="#00508D" stroke-width="0.523351" stroke-miterlimit="10"/>
</g>
<g opacity="0.8">
<path d="M21.9806 43.8866C34.0789 43.8866 43.8866 34.0789 43.8866 21.9806C43.8866 9.88224 34.0789 0.0746002 21.9806 0.0746002C9.88223 0.0746002 0.074585 9.88224 0.074585 21.9806C0.074585 34.0789 9.88223 43.8866 21.9806 43.8866Z" stroke="#00508D" stroke-width="0.128168" stroke-miterlimit="10"/>
</g>
<path d="M21.898 37.6849C30.6169 37.6849 37.6849 30.6169 37.6849 21.898C37.6849 13.1791 30.6169 6.11102 21.898 6.11102C13.1791 6.11102 6.11099 13.1791 6.11099 21.898C6.11099 30.6169 13.1791 37.6849 21.898 37.6849Z" fill="#00508D"/>
<g clip-path="url(#clip1_289_1150)">
<path d="M27.972 16.3996H14.9267C14.6673 16.3999 14.4185 16.5035 14.2351 16.6876C14.0516 16.8717 13.9484 17.1213 13.9481 17.3817V26.0626C13.9484 26.323 14.0516 26.5726 14.2351 26.7567C14.4185 26.9408 14.6673 27.0444 14.9267 27.0447H27.972C28.2314 27.0444 28.4802 26.9408 28.6636 26.7567C28.8471 26.5726 28.9503 26.323 28.9506 26.0626V17.3817C28.9503 17.1213 28.8471 16.8717 28.6636 16.6876C28.4802 16.5035 28.2314 16.3999 27.972 16.3996ZM27.6235 17.16L22.0094 22.736C21.8604 22.8838 21.6594 22.9667 21.45 22.9667C21.2405 22.9667 21.0395 22.8838 20.8906 22.736L15.2765 17.16H27.6235ZM14.7083 25.6634V17.6643L18.5129 21.4497L14.7083 25.6634ZM15.1793 26.2844L19.0521 21.9883L20.3565 23.2835C20.6483 23.5711 21.041 23.7322 21.45 23.7322C21.859 23.7322 22.2517 23.5711 22.5435 23.2835L23.8214 22.0162L27.7194 26.2894L15.1793 26.2844ZM28.198 25.6761L24.3606 21.4814L28.193 17.6694L28.198 25.6761Z" fill="white"/>
</g>
</g>
<defs>
<clipPath id="clip0_289_1150">
<rect width="43.9508" height="43.9508" fill="white"/>
</clipPath>
<clipPath id="clip1_289_1150">
<rect width="15" height="10.6452" fill="white" transform="translate(13.9507 16.3994)"/>
</clipPath>
</defs>
</svg>
