<svg width="70" height="70" viewBox="0 0 70 70" fill="none" xmlns="http://www.w3.org/2000/svg">
<g clip-path="url(#clip0_290_1207)">
<path d="M69.6345 34.8148C69.6355 41.7019 67.5941 48.4346 63.7685 54.1614C59.9428 59.8882 54.5048 64.3518 48.1422 66.9879C41.7795 69.6239 34.7781 70.3138 28.0233 68.9704C21.2685 67.6271 15.0638 64.3108 10.1939 59.441C5.32402 54.5711 2.00766 48.3664 0.664303 41.6116C-0.679058 34.8568 0.0109104 27.8553 2.64693 21.4927C5.28295 15.1301 9.74664 9.69212 15.4734 5.86648C21.2002 2.04083 27.9329 -0.000795028 34.82 0.000183457C44.0437 0.0314817 52.8808 3.70967 59.403 10.2319C65.9252 16.7541 69.6032 25.591 69.6345 34.8148Z" fill="#0099D9" fill-opacity="0.2"/>
<path d="M36.2643 38.0249H31.6088V47.0835H36.2643V38.0249Z" fill="#F2FCFF"/>
<path d="M42.8197 49.8155C41.919 48.256 40.6237 46.9609 39.064 46.0606C37.5043 45.1602 35.7351 44.6863 33.9342 44.6863C32.1333 44.6863 30.3641 45.1602 28.8044 46.0606C27.2447 46.9609 25.9494 48.256 25.0488 49.8155H42.8197Z" fill="#F2FCFF"/>
<path d="M48.2815 49.2607H19.5967V59.6205H48.2815V49.2607Z" fill="#00508D"/>
<path d="M41.1325 51.6754H26.7406C25.3526 51.6754 24.2274 52.8006 24.2274 54.1887V54.6884C24.2274 56.0764 25.3526 57.2016 26.7406 57.2016H41.1325C42.5205 57.2016 43.6457 56.0764 43.6457 54.6884V54.1887C43.6457 52.8006 42.5205 51.6754 41.1325 51.6754Z" fill="#0099D9"/>
<path d="M44.5014 14.3873C42.7012 14.3883 40.9417 14.9231 39.4453 15.924C37.949 16.9248 36.783 18.3469 36.0947 20.0104C35.4065 21.6738 35.2269 23.5041 35.5787 25.2696C35.9305 27.0351 36.7979 28.6566 38.0712 29.9292C39.3445 31.2018 40.9665 32.0683 42.7322 32.4191C44.4979 32.7699 46.328 32.5893 47.9911 31.9002C49.6542 31.2111 51.0756 30.0443 52.0757 28.5475C53.0757 27.0506 53.6095 25.2906 53.6095 23.4904C53.6095 22.2946 53.3739 21.1105 52.9161 20.0058C52.4583 18.901 51.7873 17.8972 50.9415 17.0518C50.0957 16.2065 49.0916 15.5361 47.9866 15.0789C46.8815 14.6218 45.6972 14.3867 44.5014 14.3873ZM44.5014 30.976C43.0211 30.976 41.5741 30.537 40.3433 29.7147C39.1124 28.8924 38.153 27.7236 37.5863 26.3562C37.0196 24.9887 36.8711 23.4839 37.1595 22.0321C37.4479 20.5802 38.1604 19.2464 39.2067 18.1993C40.2531 17.1523 41.5864 16.439 43.038 16.1496C44.4897 15.8602 45.9946 16.0078 47.3625 16.5735C48.7303 17.1393 49.8998 18.0981 50.7229 19.3284C51.5459 20.5587 51.9858 22.0053 51.9867 23.4856C51.9867 25.4713 51.1983 27.3758 49.7946 28.7803C48.391 30.1849 46.4871 30.9746 44.5014 30.976Z" fill="#FF9900"/>
<path d="M23.3616 14.3873C21.5613 14.3883 19.8018 14.9231 18.3055 15.924C16.8091 16.9248 15.6431 18.3469 14.9549 20.0104C14.2666 21.6738 14.0871 23.5041 14.4389 25.2696C14.7907 27.0351 15.6581 28.6566 16.9314 29.9292C18.2047 31.2018 19.8267 32.0683 21.5924 32.4191C23.3581 32.7699 25.1882 32.5893 26.8513 31.9002C28.5144 31.2111 29.9358 30.0443 30.9358 28.5475C31.9359 27.0506 32.4697 25.2906 32.4697 23.4904C32.4697 22.2946 32.234 21.1105 31.7762 20.0058C31.3184 18.901 30.6475 17.8972 29.8016 17.0518C28.9558 16.2065 27.9517 15.5361 26.8467 15.0789C25.7417 14.6218 24.5574 14.3867 23.3616 14.3873ZM23.3616 30.976C21.8813 30.976 20.4343 30.537 19.2034 29.7147C17.9726 28.8924 17.0132 27.7236 16.4465 26.3562C15.8798 24.9887 15.7312 23.4839 16.0197 22.0321C16.3081 20.5802 17.0205 19.2464 18.0669 18.1993C19.1132 17.1523 20.4465 16.439 21.8982 16.1496C23.3499 15.8602 24.8548 16.0078 26.2227 16.5735C27.5905 17.1393 28.7599 18.0981 29.583 19.3284C30.4061 20.5587 30.8459 22.0053 30.8469 23.4856C30.8469 25.4713 30.0584 27.3758 28.6548 28.7803C27.2512 30.1849 25.3473 30.9746 23.3616 30.976Z" fill="#FF9900"/>
<path d="M21.9415 11.1172V25.2716C21.9415 33.4842 27.3391 40.2028 33.9339 40.2028C40.5287 40.2028 45.9263 33.4842 45.9263 25.2716V11.1172H21.9415Z" fill="#F2FCFF"/>
</g>
<defs>
<clipPath id="clip0_290_1207">
<rect width="69.6341" height="69.6341" fill="white"/>
</clipPath>
</defs>
</svg>
