<svg width="70" height="70" viewBox="0 0 70 70" fill="none" xmlns="http://www.w3.org/2000/svg">
<g clip-path="url(#clip0_290_1214)">
<path d="M69.634 34.8145C69.635 41.7016 67.5936 48.4341 63.768 54.1609C59.9423 59.8877 54.5043 64.3515 48.1416 66.9875C41.779 69.6236 34.7776 70.3135 28.0228 68.9701C21.268 67.6268 15.0633 64.3103 10.1934 59.4404C5.32353 54.5705 2.00717 48.3659 0.663814 41.6111C-0.679546 34.8563 0.0104221 27.855 2.64644 21.4924C5.28246 15.1297 9.74615 9.69157 15.4729 5.86593C21.1997 2.04029 27.9324 -0.0011002 34.8195 -0.000121719C44.0433 0.0311765 52.8803 3.70912 59.4025 10.2313C65.9247 16.7536 69.6027 25.5907 69.634 34.8145Z" fill="#0099D9" fill-opacity="0.2"/>
<path d="M41.3799 14.5056H26.5378V55.5687H41.3799V14.5056Z" fill="#00508D"/>
<path d="M13.1995 27.2799L13.1995 42.1219H54.2625V27.2799H13.1995Z" fill="#00508D"/>
</g>
<defs>
<clipPath id="clip0_290_1214">
<rect width="69.6341" height="69.6341" fill="white"/>
</clipPath>
</defs>
</svg>
