<svg width="70" height="70" viewBox="0 0 70 70" fill="none" xmlns="http://www.w3.org/2000/svg">
<g clip-path="url(#clip0_290_1156)">
<path d="M69.639 34.8144C69.64 41.7012 67.5987 48.4338 63.7733 54.1605C59.9479 59.8872 54.5102 64.3508 48.1478 66.9869C41.7855 69.6231 34.7843 70.3134 28.0296 68.9705C21.275 67.6275 15.0703 64.3116 10.2002 59.4422C5.33008 54.5728 2.01335 48.3686 0.669426 41.6141C-0.674493 34.8596 0.0147547 27.8584 2.65002 21.4956C5.28528 15.1329 9.74818 9.6947 15.4743 5.86846C21.2005 2.04223 27.9327 -0.000244071 34.8195 -0.000244141C44.0442 0.0297505 52.8825 3.70717 59.4057 10.2295C65.929 16.7519 69.6077 25.5898 69.639 34.8144Z" fill="#0099D9" fill-opacity="0.2"/>
<path d="M58.0474 34.1811C56.4197 31.5936 49.9238 23.1534 34.8196 23.1534C19.8439 23.1534 13.259 31.5984 11.5967 34.1859L11.1959 34.8142L11.5917 35.4476C13.2243 38.0351 19.7202 46.4753 34.8443 46.4753C49.8249 46.4753 56.4098 38.035 58.0672 35.4425L58.4729 34.8142L58.0474 34.1811Z" fill="white"/>
<path d="M45.3071 34.8149C45.3081 36.8895 44.6938 38.9178 43.5419 40.6433C42.39 42.3687 40.7523 43.7138 38.8359 44.5084C36.9195 45.303 34.8105 45.5116 32.7756 45.1075C30.7407 44.7033 28.8714 43.7047 27.4041 42.2381C25.9367 40.7715 24.9373 38.9027 24.5322 36.868C24.1271 34.8333 24.3345 32.724 25.1282 30.8073C25.9219 28.8905 27.2663 27.2522 28.9912 26.0995C30.7161 24.9468 32.7441 24.3315 34.8187 24.3315C37.5996 24.3315 40.2666 25.436 42.2334 27.4018C44.2002 29.3677 45.3058 32.0341 45.3071 34.8149Z" fill="#CDECF6"/>
<path d="M60.1292 34.1467C60.0996 34.1022 60.0253 33.9441 59.8868 33.7066C57.9452 30.5511 55.2897 27.8957 52.1343 25.9541C48.1764 23.4508 42.5612 21.3382 34.8186 21.3382C16.1373 21.3382 9.77503 33.6274 9.51282 34.1518L9.18134 34.8197L9.51282 35.4925C9.94892 36.307 10.4555 37.0818 11.0267 37.808C12.3105 39.4799 13.8074 40.9767 15.4793 42.2606C19.4372 45.3378 25.6511 48.2914 34.8136 48.2914C53.4998 48.2914 59.8571 36.0021 60.1243 35.4826L60.4557 34.8098L60.1292 34.1467ZM34.8186 45.3032C26.7098 45.3032 21.2034 42.7948 17.6512 40.1529C15.6547 38.6988 13.9397 36.8932 12.5901 34.8246C14.1287 32.4202 20.397 24.3313 34.8186 24.3313C45.4108 24.3313 51.5555 28.6058 54.7119 31.8661C55.5899 32.7742 56.3739 33.7687 57.052 34.8345C55.5084 37.2092 49.245 45.3032 34.8186 45.3032Z" fill="white"/>
<path d="M39.3158 34.8145C39.3168 35.7042 39.0539 36.5741 38.5603 37.3143C38.0668 38.0545 37.3647 38.6318 36.5431 38.9729C35.7214 39.314 34.8171 39.4039 33.9444 39.2309C33.0717 39.0579 32.2699 38.63 31.6405 38.0013C31.011 37.3726 30.5822 36.5711 30.4083 35.6987C30.2344 34.8262 30.3232 33.9216 30.6634 33.0996C31.0036 32.2776 31.58 31.5749 32.3197 31.0806C33.0593 30.5862 33.929 30.3223 34.8187 30.3223C36.0105 30.3223 37.1537 30.7955 37.9969 31.6379C38.8401 32.4802 39.3145 33.6226 39.3158 34.8145Z" fill="#394B5E"/>
<g style="mix-blend-mode:soft-light">
<path d="M35.171 31.8906C35.1719 32.5474 34.9781 33.1896 34.6139 33.7362C34.2497 34.2827 33.7316 34.7089 33.1251 34.9609C32.5186 35.2129 31.851 35.2795 31.2067 35.152C30.5624 35.0245 29.9704 34.7085 29.5057 34.2444C29.0409 33.7804 28.7243 33.1888 28.5958 32.5447C28.4673 31.9007 28.5327 31.2331 28.7838 30.6262C29.0349 30.0193 29.4604 29.5005 30.0065 29.1355C30.5525 28.7705 31.1945 28.5757 31.8513 28.5757C32.7309 28.5757 33.5745 28.9249 34.1969 29.5464C34.8193 30.1679 35.1697 31.011 35.171 31.8906Z" fill="white"/>
</g>
</g>
<defs>
<clipPath id="clip0_290_1156">
<rect width="69.6341" height="69.6341" fill="white"/>
</clipPath>
</defs>
</svg>
