<svg width="70" height="70" viewBox="0 0 70 70" fill="none" xmlns="http://www.w3.org/2000/svg">
<g clip-path="url(#clip0_290_1196)">
<path d="M69.634 34.8145C69.635 41.7016 67.5936 48.4341 63.768 54.1609C59.9423 59.8877 54.5043 64.3515 48.1416 66.9875C41.779 69.6236 34.7776 70.3135 28.0228 68.9701C21.268 67.6268 15.0633 64.3103 10.1934 59.4404C5.32353 54.5705 2.00717 48.3659 0.663814 41.6111C-0.679546 34.8563 0.0104221 27.855 2.64644 21.4924C5.28246 15.1297 9.74615 9.69157 15.4729 5.86593C21.1997 2.04029 27.9324 -0.0011002 34.8195 -0.000121719C44.0433 0.0311765 52.8803 3.70912 59.4025 10.2313C65.9247 16.7536 69.6027 25.5907 69.634 34.8145Z" fill="#0099D9" fill-opacity="0.2"/>
</g>
<path d="M18.5361 36.044C18.8044 36.1347 18.88 36.4521 18.6986 36.6638C18.6608 36.7091 18.6268 36.762 18.5852 36.8074C18.4756 36.9245 18.4908 37.0455 18.555 37.1815C18.6948 37.4725 18.8309 37.7636 19.1937 37.8429C19.2239 37.8505 19.2693 37.8656 19.2806 37.8883C19.3033 37.9336 19.3335 37.9979 19.3147 38.0357C19.1748 38.3834 19.3298 38.7273 19.685 38.852C19.7304 38.8671 19.7909 38.9087 19.8022 38.9503C19.8475 39.109 19.8778 39.2753 19.908 39.4151C19.7909 39.4794 19.6888 39.5134 19.6246 39.5776C19.4054 39.7968 19.2051 40.0312 18.9858 40.2504C18.8422 40.3978 18.7893 40.5716 18.8007 40.7606C18.8196 41.0554 18.8385 41.3539 18.8876 41.645C18.9178 41.8264 18.9858 42.0115 19.0841 42.1665C19.2051 42.3592 19.4243 42.4046 19.6397 42.4424C19.7379 42.4613 19.8816 42.4953 19.908 42.5596C19.9609 42.6918 19.942 42.8279 19.8362 42.9715C19.6057 43.289 19.3902 43.6216 19.2088 43.9693C19.0766 44.2225 19.1181 44.264 19.3789 44.3585C19.685 44.4681 19.9382 44.6231 20.0441 44.967C20.1008 45.1484 20.2066 45.3185 20.3124 45.4772C20.4258 45.6473 20.5807 45.7871 20.6866 45.961C20.747 46.0555 20.781 46.0479 20.8755 46.029C21.1325 45.9761 21.3895 45.9345 21.6503 45.9081C21.7939 45.8929 21.9148 45.9421 21.9262 46.1273C21.9337 46.2255 21.9753 46.3238 21.9904 46.422C22.0169 46.5619 22.1 46.5921 22.2248 46.5657C22.4213 46.5241 22.6291 46.509 22.8181 46.4447C23.1431 46.3389 23.4379 46.2747 23.6496 46.6375C23.676 46.679 23.7327 46.7055 23.7667 46.7433C23.9557 46.9474 24.1409 47.1061 24.4621 47.0078C24.6171 46.9587 24.8249 46.9776 24.9761 47.0456C25.2407 47.1666 25.4826 47.3442 25.7282 47.4992C25.664 47.7335 25.5884 47.9262 25.3767 48.0585C25.2482 48.1379 25.1726 48.3042 25.0706 48.4289C24.9837 48.5347 24.9005 48.6443 24.7985 48.735C24.5528 48.9504 24.2807 49.181 24.2656 49.5136C24.2467 49.9028 24.1333 50.2543 24.0313 50.6171C23.9066 51.0593 23.7705 51.4826 23.506 51.8643C23.4266 51.9777 23.3964 52.1591 23.4115 52.3027C23.453 52.6882 23.4115 53.051 23.2905 53.4214C23.0562 54.1319 23.0638 54.8462 23.4871 55.5C23.54 55.5794 23.6685 55.6437 23.7667 55.6474C23.9028 55.6512 24.0426 55.6021 24.1787 55.5643C24.3676 55.5114 24.5453 55.466 24.7456 55.5492C24.8552 55.5945 24.9988 55.5794 25.1197 55.5567C25.286 55.5227 25.4485 55.4585 25.6148 55.4093C25.6904 55.3867 25.7773 55.3753 25.8416 55.3338C25.9587 55.2619 26.0457 55.2733 26.1515 55.3564C26.4236 55.5681 26.7297 55.5756 26.983 55.3564C27.2475 55.1297 27.4932 54.8802 27.7577 54.6308C27.6368 54.5741 27.5272 54.5212 27.4176 54.4796C27.3269 54.4456 27.2324 54.4003 27.2966 54.2982C27.3344 54.2415 27.4705 54.1962 27.5234 54.2226C27.6784 54.3058 27.8409 54.404 27.9429 54.5401C28.0261 54.6459 28.0979 54.6799 28.2226 54.6837C28.3473 54.6837 28.4796 54.695 28.6005 54.7328C28.7895 54.7933 28.9671 54.8802 29.1523 54.9483C29.2921 55.0012 29.466 55.0125 29.5756 55.0994C29.6852 55.1864 29.7721 55.2053 29.9082 55.2053C30.1198 55.2053 30.339 55.2279 30.5355 55.2997C30.6149 55.3262 30.6338 55.5076 30.7018 55.6021C30.7547 55.6739 30.8417 55.7533 30.9248 55.7646C31.0987 55.7873 31.2763 55.7759 31.4501 55.7646C31.522 55.7608 31.6089 55.7306 31.6618 55.6815C31.8545 55.5152 32.0322 55.3715 32.3156 55.5152C32.5499 55.6361 32.8069 55.7117 33.0564 55.81C33.0375 55.8251 33.0224 55.8402 33.0035 55.8553C33.0186 55.98 33.0148 56.1085 33.0526 56.2257C33.0753 56.305 33.1509 56.3655 33.2 56.4373C33.3096 56.5961 33.423 56.751 33.5477 56.9324C33.8236 56.6679 34.0503 56.3958 34.33 56.1917C34.5643 56.0178 34.7079 55.8553 34.5719 55.5605C34.5681 55.553 34.5794 55.5378 34.5983 55.4887C34.7004 55.5152 34.8024 55.5605 34.9082 55.5643C35.2597 55.587 35.6112 55.6096 35.9627 55.6096C36.3633 55.6096 36.3633 55.5983 36.4578 55.9989C36.4691 56.0367 36.4691 56.0934 36.4918 56.1123C36.5409 56.1501 36.6127 56.203 36.6619 56.1917C37.2288 56.0707 37.7919 55.9422 38.3512 55.8062C38.5289 55.7646 38.733 55.7873 38.8577 55.6059C38.9181 55.5189 38.9975 55.4471 39.0731 55.3715C39.1184 55.3262 39.1676 55.2695 39.2243 55.2582C39.6589 55.141 40.0973 55.0314 40.5357 54.9294C40.8494 54.8576 41.0043 54.6913 41.0232 54.3738C41.0232 54.3511 41.0421 54.3322 41.0535 54.3096C41.1631 54.3814 41.2538 54.4683 41.3634 54.5061C41.5826 54.5854 41.8169 54.6308 42.0361 54.7064C42.2175 54.7706 42.3687 54.7631 42.5274 54.6421C42.705 54.5099 43.0112 54.6195 43.0943 54.8311C43.1548 54.9898 43.2153 55.1297 43.4231 55.1675C43.6083 55.2015 43.7859 55.296 43.9711 55.3489C44.2999 55.4434 44.5456 55.2468 44.538 54.9029C44.538 54.7064 44.5229 54.5099 44.5305 54.3133C44.5342 54.1886 44.4851 54.1281 44.3906 54.0526C44.2697 53.9581 44.0467 53.9165 44.0845 53.6973C44.1412 53.342 44.0618 53.0472 43.7481 52.8432C43.7255 52.828 43.7141 52.8016 43.6952 52.7827C43.4345 52.469 43.4231 52.178 43.6688 51.8492C43.9144 51.5242 44.2886 51.373 44.6401 51.2256C45.309 50.9422 45.9137 50.6133 46.2161 49.9028C46.2312 49.8688 46.269 49.8272 46.2992 49.8272C46.5562 49.8159 46.6771 49.6269 46.8321 49.4531C47.1722 49.0676 47.3763 48.667 47.1533 48.1492C47.1307 48.0963 47.142 48.0245 47.1193 47.9716C47.0589 47.828 47.0097 47.6692 46.9152 47.5483C46.7452 47.3367 46.5373 47.1515 46.3559 46.9474C46.2652 46.8491 46.1972 46.8189 46.0913 46.9209C45.978 47.0305 45.8797 47.0154 45.7663 46.8945C45.173 46.252 44.572 45.617 43.9673 44.9821C43.733 44.7365 43.7293 44.7402 43.4193 44.8839C43.3589 44.9103 43.2984 44.9368 43.2228 44.9708C43.1283 44.778 43.0414 44.5966 42.9469 44.419C42.6597 43.8672 42.3309 43.3457 41.7942 43.0017C41.6355 42.8997 41.6204 42.809 41.6846 42.6578C41.7942 42.397 41.9076 42.1363 42.0021 41.8717C42.0248 41.8037 42.0134 41.6941 41.9719 41.6374C41.8131 41.4333 41.6355 41.2368 41.4616 41.044C41.2689 40.8324 41.0724 40.6245 40.8721 40.4091C41.2765 40.1899 41.5599 39.8989 41.7942 39.5587C42.1268 39.0637 42.1268 39.0599 42.6899 39.041C42.8298 39.0372 42.9772 39.007 43.0754 39.1581C43.0905 39.1846 43.1586 39.1997 43.1888 39.1884C43.4042 39.0863 43.6234 38.9956 43.8124 38.8596C43.854 38.8293 43.7746 38.629 43.7519 38.5081C43.7481 38.4816 43.7519 38.4552 43.7519 38.4665C44.0203 38.2813 44.2659 38.1075 44.5191 37.945C44.5834 37.9034 44.6741 37.8656 44.7421 37.8807C45.0709 37.9525 45.2561 37.8051 45.3808 37.5179C45.4073 37.4537 45.5018 37.3894 45.5736 37.3781C45.7247 37.3516 45.8835 37.3592 46.0347 37.3478C46.1669 37.3403 46.3446 37.3705 46.4239 37.2987C46.5524 37.1853 46.7527 37.1022 46.7565 36.8716C46.7565 36.8225 46.8359 36.7658 46.8888 36.7356C47.21 36.5504 47.5351 36.3765 47.8525 36.1876C48.0679 36.0591 48.2682 35.9155 48.5139 35.7529C48.3098 35.6471 48.1586 35.5715 48.0113 35.4922C48.0679 35.4317 48.1209 35.409 48.1738 35.409C48.2947 35.409 48.4194 35.4355 48.5366 35.4241C48.7029 35.409 48.752 35.4771 48.7444 35.632C48.7444 35.7114 48.7596 35.8285 48.8125 35.8625C49.1526 36.0742 49.5041 36.2745 49.8594 36.4672C49.9274 36.505 50.0256 36.4786 50.1088 36.4861C50.0937 36.2858 50.294 36.4143 50.328 36.3198C50.3847 36.0666 50.4527 35.8172 50.5472 35.5753C50.6455 35.3259 50.7853 35.0878 50.8722 34.8346C51.0801 34.2299 50.978 33.6327 50.7664 33.0507C50.6455 32.7143 50.464 32.4196 50.0823 32.3175C49.9236 32.2759 49.8896 32.1437 49.8934 31.9963C49.9047 31.7468 49.8367 31.5314 49.625 31.3727C49.557 31.3198 49.5003 31.248 49.4436 31.1799C49.2547 30.9456 49.2773 30.6433 49.4739 30.4316C49.5381 30.3598 49.5721 30.2464 49.5948 30.1444C49.6288 29.997 49.6364 29.842 49.6591 29.6909C49.6855 29.5208 49.7309 29.3281 49.5608 29.226C49.3794 29.1164 49.3794 28.9652 49.3643 28.7952C49.3529 28.6742 49.334 28.4777 49.266 28.4475C48.941 28.3114 48.8805 28.0657 48.907 27.7634C48.907 27.7521 48.9032 27.7369 48.8994 27.7256C48.8238 27.5442 48.8729 27.3779 48.9183 27.1927C48.9636 27.0113 48.9788 26.7997 48.9296 26.622C48.8276 26.2403 48.5177 26.0022 48.2191 25.7755C47.9508 25.5714 47.6636 25.3975 47.399 25.1897C47.1042 24.9591 47.142 24.551 47.4444 24.3393C47.7316 24.139 47.9017 23.8329 47.9054 23.5003C47.913 23.0921 47.879 22.6688 47.7694 22.2758C47.5691 21.5502 47.297 20.8434 47.0589 20.1253C47.0211 20.012 46.9644 19.9893 46.8548 19.9855C46.594 19.9742 46.3332 19.9477 46.0724 19.9099C46.0006 19.8986 45.9402 19.8192 45.8343 19.7398C46.1178 19.7096 46.3294 19.5849 46.5373 19.7398C46.5562 19.755 46.6129 19.7323 46.6469 19.7172C46.7225 19.6794 46.7905 19.6302 46.8812 19.5736C46.8812 19.3052 46.9304 19.0029 46.6318 18.795C46.5411 18.7308 46.4542 18.6438 46.3899 18.5531C46.1858 18.2772 45.8306 18.1865 45.6303 17.888C45.4678 17.6461 45.309 17.6801 45.1427 17.8993C44.7912 17.9031 44.5267 18.092 44.2357 18.2168C44.1336 18.1034 44.024 17.9938 43.9258 17.8728C43.8615 17.7897 43.8691 17.7217 43.9976 17.6839C44.1299 17.6423 44.2054 17.5667 44.0845 17.4193C44.0467 17.3777 44.0429 17.2795 44.0656 17.2228C44.1034 17.1208 44.504 17.0527 44.5758 17.1359C44.6023 17.1623 44.5947 17.2304 44.5834 17.2757C44.5645 17.3475 44.5267 17.4155 44.4965 17.4873C44.7081 17.5289 45.0785 17.4155 45.1465 17.3059C45.2939 17.0754 45.1919 16.6748 44.9311 16.5576C44.7308 16.4669 44.7119 16.3309 44.7837 16.1646C44.8404 16.0323 44.9311 15.9114 45.0142 15.7791C44.7988 15.6166 44.6212 15.4163 44.2924 15.5221C44.0883 15.5901 43.9749 15.4427 44.0203 15.2273C44.0316 15.1706 44.0618 15.1177 44.0883 15.0459C43.6008 14.9174 43.34 15.2008 43.1472 15.5183C43.0301 15.4881 42.8978 15.4163 42.8638 15.4503C42.7542 15.5523 42.6332 15.6884 42.603 15.8282C42.5539 16.0625 42.5728 16.312 42.5614 16.6068C42.3196 16.8184 41.9907 16.9242 41.5599 16.8108C41.8509 16.6975 42.1041 16.5992 42.3573 16.5009C42.2969 16.4291 42.2477 16.3989 42.1911 16.3913C41.8245 16.346 41.4579 16.2969 41.0875 16.2704C41.0195 16.2666 40.9325 16.3384 40.8796 16.3951C40.6188 16.6861 40.5092 17.0678 40.29 17.3815C40.1464 17.5856 39.9726 17.8237 39.7609 17.9069C39.2999 18.0845 38.8085 18.1752 38.3248 18.2886C38.1585 18.3264 37.8902 18.5116 37.8977 18.6741C37.9128 19.0142 37.5954 19.1616 37.5236 19.4602C37.259 19.3014 37.0133 19.1729 36.7904 19.018C36.6127 18.897 36.4653 18.9084 36.299 19.0331C36.1214 19.1692 35.9287 19.2901 35.717 19.4337C35.8606 19.1238 35.5318 19.0369 35.4563 18.8139C35.7548 18.5682 36.0496 18.3226 36.352 18.0845C36.4616 17.9976 36.4729 17.9031 36.4578 17.767C36.4275 17.5062 36.4238 17.2379 36.4086 16.9582C36.643 16.9507 36.8093 17.0641 37.002 16.928C37.1116 16.8524 37.1418 16.8146 37.1078 16.705C37.0285 16.4631 36.8773 16.278 36.6467 16.1684C36.4464 16.0739 36.2197 16.1381 36.0987 16.3195C36.0761 16.3535 36.0458 16.3762 36.0156 16.4027C35.8266 16.5803 35.8191 16.6823 35.974 16.8638C35.8266 16.962 35.6792 17.0641 35.5318 17.1623C35.3467 17.287 35.1804 17.2984 34.9876 17.151C34.7609 16.9771 34.5039 16.8373 34.2506 16.6975C33.971 16.5387 33.7744 16.5727 33.5552 16.7806C33.5212 16.8108 33.4645 16.8184 33.4645 16.8184C33.3852 16.6597 33.3474 16.4707 33.2378 16.4027C33.1282 16.3346 32.943 16.3876 32.788 16.3876C32.8447 16.278 32.9468 16.1684 32.9392 16.0663C32.9241 15.7942 32.8598 15.5221 32.8107 15.2197C32.72 15.2802 32.6595 15.3218 32.5991 15.3634C32.5877 15.3558 32.5764 15.3482 32.5651 15.3407C32.6444 15.1933 32.7238 15.0459 32.8032 14.9023C32.7918 14.8834 32.788 14.8683 32.7767 14.8645C32.7616 14.8531 32.7389 14.8531 32.7238 14.838C32.5688 14.7133 32.429 14.5168 32.1947 14.7095C32.1796 14.7209 32.138 14.7095 32.1191 14.6982C31.9037 14.5621 31.6769 14.4374 31.4842 14.2787C31.3519 14.1653 31.2801 14.188 31.1705 14.2938C31.1176 14.3467 31.0269 14.4072 30.9626 14.3958C30.2294 14.2825 29.4924 14.1842 28.7706 14.0255C28.4267 13.9499 28.2226 14.0406 28.0601 14.324C28.0525 14.3392 28.0261 14.3429 27.9731 14.3694C27.958 14.324 27.9391 14.2749 27.9202 14.2258C27.8787 14.2787 27.8673 14.3051 27.8711 14.3278C27.9316 14.5886 28.0223 14.8456 28.0525 15.1101C28.0752 15.3067 28.1281 15.318 28.2944 15.2235C28.1923 15.4125 28.0147 15.5674 28.1319 15.8093C28.249 15.7224 28.3624 15.6392 28.5098 15.5296C28.6723 15.7111 28.8462 15.9076 28.9973 16.0701C28.8764 16.2137 28.8008 16.312 28.7139 16.4065C28.5287 16.6143 28.5287 16.6483 28.7706 16.8033C28.7026 16.8297 28.6496 16.86 28.6005 16.8675C28.3208 16.9129 28.1546 17.0943 28.0374 17.3286C27.9429 17.5176 28.0223 17.6914 28.2339 17.7481C28.2982 17.7632 28.37 17.7632 28.4342 17.7595C28.5589 17.7557 28.6837 17.7443 28.8613 17.733C28.7895 17.8426 28.7404 17.922 28.6912 17.9938C28.54 18.2016 28.6421 18.504 28.884 18.572C28.9407 18.5871 28.9822 18.6438 29.0351 18.6816C29.0276 18.7005 29.0162 18.7156 29.0087 18.7345C28.8424 18.7119 28.7555 18.7837 28.6496 18.9122C28.5363 19.052 28.5552 19.1011 28.6496 19.2183C28.7819 19.3884 28.9596 19.5433 28.9482 19.8116C28.7101 19.8532 28.6005 19.7209 28.4909 19.5622C28.4569 19.5131 28.37 19.4526 28.3322 19.4639C28.0979 19.5395 27.89 19.6832 27.8144 19.9175C27.6784 20.337 27.5763 20.7678 27.4554 21.2176C27.0737 21.0966 26.8318 21.2856 26.6768 21.5842C26.5861 21.4859 26.5068 21.4028 26.4349 21.3158C26.314 21.1684 26.2157 21.0135 26.2422 20.8018C26.2762 20.5637 26.2573 20.5675 26.023 20.594C25.4939 20.6582 24.9648 20.7149 24.4357 20.7565C24.2996 20.7678 24.1447 20.6658 24.0237 20.6998C23.6533 20.8018 23.3056 20.9757 23.0675 21.2969C22.9844 21.4065 22.9617 21.5766 22.8635 21.6522C22.5913 21.8601 22.4893 22.1284 22.5271 22.4459C22.5536 22.6651 22.6216 22.8729 22.9088 22.8918C23.0033 22.8994 23.094 22.9523 23.1658 22.975C23.1318 23.2017 23.0827 23.4058 23.0789 23.6137C23.0713 23.9387 23.0902 24.2637 23.1016 24.5887C23.1091 24.7853 23.1016 24.9742 22.9617 25.1405C22.6329 25.5374 22.3986 25.9682 22.5044 26.5124C22.5044 26.5162 22.4969 26.5238 22.4969 26.5313C22.3041 26.5313 22.1114 26.5313 21.9148 26.5313C21.8544 26.5313 21.7675 26.5238 21.7448 26.5578C21.6541 26.6863 21.5596 26.8223 21.5067 26.966C21.4386 27.17 21.4046 27.3855 21.3631 27.5933C21.3555 27.6349 21.3593 27.6954 21.382 27.7256C21.484 27.8768 21.8808 27.9373 22.0433 27.8314C22.2248 27.7105 22.3797 27.7747 22.4629 27.975C22.5725 28.2358 22.4742 28.4928 22.478 28.7498C22.478 28.7989 22.4213 28.8556 22.3797 28.8972C22.0849 29.1807 21.775 29.4528 21.4953 29.7513C21.1703 30.0953 21.1628 30.0877 21.4273 30.4543C21.4349 30.4619 21.4273 30.4808 21.4273 30.4921C21.3101 30.4808 21.1854 30.4354 21.0834 30.4619C20.9662 30.4921 20.8717 30.613 20.7546 30.6508C20.611 30.6962 20.4447 30.7453 20.3086 30.7113C20.0894 30.6546 19.8929 30.5299 19.6812 30.443C19.617 30.4165 19.515 30.3976 19.462 30.4278C19.2353 30.5677 19.0161 30.7264 18.8007 30.8851C18.5588 31.0628 18.5399 31.2177 18.6835 31.4936C18.8725 31.8564 19.069 32.2193 19.2126 32.601C19.3524 32.9676 19.4583 33.3417 19.3411 33.7574C19.2504 34.0938 19.103 34.3773 18.8649 34.6229C18.7893 34.7023 18.7478 34.7741 18.8309 34.8875C18.8574 34.9215 18.8309 35.0311 18.7893 35.0651C18.7175 35.1331 18.623 35.186 18.5323 35.2201C18.3434 35.2881 18.23 35.4544 18.2375 35.6093C18.2451 35.7832 18.3131 35.9835 18.5437 36.0591L18.5361 36.044Z" fill="#00508D"/>
<defs>
<clipPath id="clip0_290_1196">
<rect width="69.6341" height="69.6341" fill="white"/>
</clipPath>
</defs>
</svg>
