<svg width="70" height="70" viewBox="0 0 70 70" fill="none" xmlns="http://www.w3.org/2000/svg">
<g clip-path="url(#clip0_290_1190)">
<path d="M69.634 34.8148C69.6411 42.7882 66.9092 50.522 61.8954 56.7218C56.8817 62.9217 49.8905 67.2112 42.092 68.8723C35.0522 70.377 27.719 69.6625 21.1019 66.8274C14.4848 63.9924 8.90907 59.1762 5.1422 53.0415C1.37533 46.9068 -0.397497 39.7554 0.0677451 32.5716C0.532987 25.3878 3.21343 18.5247 7.74011 12.9271C12.2668 7.32953 18.4172 3.27268 25.3447 1.31482C32.2722 -0.643043 39.6362 -0.405486 46.4232 1.9946C53.2102 4.39468 59.0864 8.83933 63.2431 14.7169C67.3998 20.5945 69.6325 27.616 69.634 34.8148Z" fill="#0099D9" fill-opacity="0.2"/>
<path d="M38.2779 24.7369V61.0554L46.5004 64.0535V24.7369H38.2779Z" fill="#FF9900"/>
<path d="M21.8373 24.7369V64.0535L30.0598 61.0554V24.7369H21.8373Z" fill="#FF9900"/>
<g style="mix-blend-mode:soft-light">
<path d="M30.061 24.7369V61.0554L34.1673 59.5564L38.2786 61.0554V24.7369H30.061Z" fill="white"/>
</g>
<path d="M49.2997 19.5174L47.108 17.3257L42.1854 24.44L49.2997 19.5174Z" fill="#00508D"/>
<path d="M37.8076 52.0313L40.8008 51.2299L37.1051 43.413L37.8076 52.0313Z" fill="#00508D"/>
<path d="M14.5949 36.096L15.3964 39.0941L23.2182 35.3935L14.5949 36.096Z" fill="#00508D"/>
<path d="M19.0374 45.3973L21.229 47.589L26.1517 40.4747L19.0374 45.3973Z" fill="#00508D"/>
<path d="M27.5323 51.2299L30.5304 52.0314L31.2329 43.4081L27.5323 51.2299Z" fill="#00508D"/>
<path d="M47.108 47.589L49.2997 45.3973L42.1854 40.4747L47.108 47.589Z" fill="#00508D"/>
<path d="M53.7435 28.819L52.942 25.8209L45.1202 29.5215L53.7435 28.819Z" fill="#00508D"/>
<path d="M45.1202 35.3935L52.942 39.0941L53.7435 36.096L45.1202 35.3935Z" fill="#00508D"/>
<path d="M40.801 13.6846L37.8079 12.8831L37.1004 21.5064L40.801 13.6846Z" fill="#00508D"/>
<path d="M30.5304 12.8831L27.5323 13.6846L31.2329 21.5113L30.5304 12.8831Z" fill="#00508D"/>
<path d="M21.229 17.3257L19.0374 19.5174L26.1517 24.445L21.229 17.3257Z" fill="#00508D"/>
<path d="M15.3964 25.8209L14.5949 28.819L23.2182 29.5264L15.3964 25.8209Z" fill="#00508D"/>
<path d="M53.7425 36.0962L54.9299 36.1952V28.7197L53.7425 28.8187L45.1193 29.5212L52.9411 25.8206L54.0196 25.311L50.2794 18.8398L49.2998 19.5176L42.1855 24.4403L47.1081 17.326L47.7859 16.3464L41.3148 12.6062L40.8003 13.6847L37.0996 21.5065L37.8071 12.8832L37.9061 11.6959H30.4306L30.5295 12.8832L31.2321 21.5114L27.5314 13.6847L27.0219 12.6062L20.5507 16.3464L21.2285 17.326L26.1511 24.4452L19.0368 19.5176L18.0523 18.8398L14.3171 25.311L15.3956 25.8206L23.2174 29.5261L14.5941 28.8187L13.4018 28.7197V36.1952L14.5941 36.0962L23.2174 35.3937L15.3956 39.0943L14.3171 39.6039L18.0523 46.0751L19.0368 45.3973L26.1511 40.4746L21.2285 47.5889L20.5507 48.5735L27.0219 52.3087L27.5314 51.2302L31.2321 43.4084L30.5295 52.0317L30.4306 53.224H37.9061L37.8071 52.0317L37.1046 43.4134L40.8003 51.2302L41.3148 52.3087L47.7859 48.5735L47.1081 47.5889L42.1855 40.4746L49.2998 45.3973L50.2794 46.0751L54.0196 39.6039L52.9411 39.0943L45.1193 35.3937L53.7425 36.0962Z" fill="#00508D"/>
<path d="M35.0758 49.4807C44.4894 49.04 51.7634 41.0515 51.3227 31.6379C50.8821 22.2243 42.8937 14.9505 33.4801 15.3911C24.0665 15.8318 16.7925 23.82 17.2331 33.2336C17.6738 42.6472 25.6622 49.9213 35.0758 49.4807Z" fill="#0099D9" fill-opacity="0.2"/>
<g style="mix-blend-mode:soft-light">
<path d="M23.7668 42.8589C25.1067 44.3282 26.7306 45.5106 28.5404 46.3346C30.3502 47.1585 32.3084 47.607 34.2964 47.6528C36.2844 47.6986 38.261 47.3408 40.1069 46.601C41.9527 45.8612 43.6294 44.7549 45.0355 43.3488C46.4416 41.9426 47.548 40.2658 48.2878 38.42C49.0275 36.5742 49.3854 34.5975 49.3396 32.6095C49.2938 30.6215 48.8454 28.6634 48.0214 26.8536C47.1974 25.0438 46.015 23.4199 44.5457 22.08L23.7668 42.8589Z" fill="white"/>
</g>
<g style="mix-blend-mode:soft-light">
<path d="M34.1669 17.7515C31.259 17.7539 28.4171 18.6181 26.0002 20.2351C23.5834 21.8521 21.7 24.1493 20.5882 26.8363C19.4764 29.5232 19.1859 32.4794 19.7536 35.3313C20.3212 38.1833 21.7215 40.803 23.7775 42.8594L44.5564 22.0805C43.1952 20.71 41.5767 19.6221 39.7937 18.8792C38.0107 18.1363 36.0985 17.753 34.1669 17.7515Z" fill="white"/>
</g>
</g>
<defs>
<clipPath id="clip0_290_1190">
<rect width="69.6341" height="69.6341" fill="white"/>
</clipPath>
</defs>
</svg>
