<svg width="58" height="58" viewBox="0 0 58 58" fill="none" xmlns="http://www.w3.org/2000/svg">
<g clip-path="url(#clip0_525_1194)">
<path d="M14.7969 38.4928C15.6791 39.0423 16.6963 39.3334 17.7414 39.3334C18.7865 39.3334 19.799 39.0423 20.6812 38.4952C21.0769 38.2483 21.1979 37.7268 20.9512 37.331C20.7045 36.9351 20.1831 36.8141 19.7874 37.0609C19.1752 37.4427 18.4676 37.6453 17.7414 37.6453C17.0152 37.6453 16.3053 37.4427 15.6931 37.0609C15.2974 36.8141 14.776 36.9351 14.5293 37.331C14.2825 37.7268 14.4036 38.2483 14.7993 38.4952L14.7969 38.4928Z" fill="#0099D9"/>
<path d="M12.4597 28.3457C11.9941 28.3457 11.6147 28.7229 11.6147 29.1909V31.5845C11.6147 32.0502 11.9918 32.4297 12.4597 32.4297C12.9275 32.4297 13.3046 32.0525 13.3046 31.5845V29.1909C13.3046 28.7252 12.9275 28.3457 12.4597 28.3457Z" fill="#0099D9"/>
<path d="M23.0158 32.4297C23.4814 32.4297 23.8608 32.0525 23.8608 31.5845V29.1909C23.8608 28.7252 23.4837 28.3457 23.0158 28.3457C22.548 28.3457 22.1709 28.7229 22.1709 29.1909V31.5845C22.1709 32.0502 22.548 32.4297 23.0158 32.4297Z" fill="#0099D9"/>
<path d="M30.8947 50.7913L22.7945 48.095V46.4209C26.3302 46.0041 29.9031 45.1473 33.4248 43.855C33.7577 43.734 33.9788 43.415 33.9788 43.0611V28.9883C33.9788 28.5226 33.6017 28.1431 33.1339 28.1431C32.666 28.1431 32.289 28.5203 32.289 28.9883V42.465C29.135 43.5756 25.9485 44.33 22.7922 44.7165V42.6187C24.4658 41.678 25.9205 40.2251 27.1379 38.2599C28.1807 36.5742 28.9372 34.6719 29.3794 32.6602C29.6029 33.049 29.8286 33.4355 30.0591 33.8104C30.2197 34.0688 30.4943 34.2109 30.7783 34.2109C30.9296 34.2109 31.0832 34.1713 31.2206 34.0851C31.6186 33.8407 31.742 33.3191 31.4952 32.9233C31.0297 32.1689 30.5735 31.3493 30.1336 30.5576C29.9776 30.2782 29.8193 29.9965 29.6611 29.7148C29.6611 29.7101 29.6564 29.7078 29.6541 29.7031C28.3809 27.4446 27.0052 25.2233 25.0174 23.8775C24.7288 23.6819 24.3471 23.6843 24.0584 23.8845C22.734 24.8135 21.1768 25.3048 19.5521 25.3048C15.2181 25.3048 11.6917 21.7773 11.6917 17.4419C11.6917 16.9762 11.3146 16.5967 10.8468 16.5967C10.3789 16.5967 10.0018 16.9739 10.0018 17.4419C10.0018 23.5329 6.9154 29.3795 4.02448 32.8232C3.72422 33.1794 3.77077 33.7126 4.12922 34.013C4.48535 34.3133 5.01838 34.2668 5.31865 33.9082C5.53046 33.6567 5.80745 33.3121 6.13099 32.8837C6.44057 34.2039 6.88747 35.4729 7.47171 36.6673C8.88458 39.5545 10.5861 41.5313 12.6716 42.6815V44.7119C9.5177 44.323 6.33117 43.571 3.17489 42.4603V22.7692C3.17489 15.0762 8.81941 10.1051 17.555 10.1051C19.5428 10.1051 21.4329 10.3729 23.1739 10.9038C23.6208 11.0388 24.0933 10.7874 24.2284 10.3403C24.3634 9.89326 24.112 9.42292 23.6651 9.28555C21.7634 8.70811 19.7081 8.41473 17.5527 8.41473C7.94189 8.41473 1.48503 14.1821 1.48503 22.7692V43.0564C1.48503 43.4103 1.70616 43.7293 2.03901 43.8504C5.56537 45.138 9.13597 45.9948 12.6693 46.4139V48.0904L4.56915 50.7866C1.83883 51.7063 0 54.2606 0 57.1548C0 57.6204 0.377077 58 0.844931 58H34.6306C35.0961 58 35.4755 57.6181 35.4755 57.1524C35.4755 54.2629 33.6367 51.7063 30.8947 50.7936V50.7913ZM8.99631 35.9292C8.23983 34.3832 7.73706 32.6998 7.49266 30.9255C8.86363 28.7555 10.4208 25.6913 11.2006 22.0614C12.8299 25.0045 15.9676 26.9999 19.5614 26.9999C21.3281 26.9999 23.0296 26.5226 24.524 25.6098C25.9229 26.7368 27.0262 28.4877 28.0573 30.3015C27.7966 32.8627 26.9889 35.3029 25.7064 37.3728C23.6883 40.6302 21.0791 42.2159 17.7319 42.2159C16.3121 42.2159 15.0551 41.9551 13.9239 41.4219C13.8843 41.4009 13.8448 41.3823 13.8029 41.3683C11.8733 40.416 10.3254 38.6418 8.99631 35.9269V35.9292ZM17.7226 43.9063H17.7436C18.9353 43.9063 20.0572 43.7246 21.107 43.3754V48.7051C21.107 49.1055 20.8207 49.4548 20.2551 49.7389C19.615 50.0602 18.6979 50.2441 17.7366 50.2441C16.0816 50.2441 14.3685 49.669 14.3685 48.7051V43.4126C15.3996 43.7386 16.5122 43.9063 17.7203 43.9063H17.7226ZM1.75969 56.3096C2.06461 54.5051 3.3355 52.9893 5.11381 52.3955L12.9254 49.7947C13.2093 50.3815 13.7307 50.8821 14.4593 51.2477C15.3391 51.69 16.5006 51.9345 17.7343 51.9345C20.1038 51.9345 21.9054 51.094 22.5431 49.7924L30.3593 52.3955C32.1377 52.987 33.4085 54.5027 33.7135 56.3096H1.75969Z" fill="#0099D9"/>
<path d="M58.0002 14.1123C58.0002 6.33087 50.6728 0 41.6696 0C32.6663 0 25.3389 6.33087 25.3389 14.1123C25.3389 20.4502 30.2246 26.001 37.254 27.7008C38.1618 28.7672 38.1781 30.1246 37.3239 32.3063C37.2005 32.6206 37.275 32.9769 37.5147 33.2144C37.6753 33.375 37.8918 33.4612 38.1106 33.4612C38.2153 33.4612 38.3224 33.4426 38.4225 33.4006C40.9038 32.4111 42.291 30.6229 42.4889 28.2037C51.2059 27.8335 57.9979 21.6866 57.9979 14.1123H58.0002ZM42.184 26.5273C42.014 26.5319 41.8418 26.5342 41.6696 26.5342C41.6649 26.5342 41.6626 26.5342 41.6579 26.5342C41.6533 26.5342 41.6486 26.5342 41.644 26.5342C41.6183 26.5342 41.5951 26.5412 41.5695 26.5436C41.5415 26.5459 41.5136 26.5482 41.488 26.5552C41.4601 26.5622 41.4345 26.5715 41.4065 26.5808C41.3809 26.5901 41.3553 26.5971 41.3297 26.6064C41.3041 26.6181 41.2808 26.632 41.2552 26.646C41.232 26.66 41.2087 26.6716 41.1877 26.6856C41.1645 26.7019 41.1458 26.7205 41.1249 26.7368C41.1039 26.7554 41.083 26.7717 41.0644 26.7904C41.0457 26.809 41.0295 26.83 41.0132 26.8509C40.9969 26.8719 40.9782 26.8928 40.962 26.9161C40.948 26.9394 40.9364 26.9627 40.9247 26.986C40.9107 27.0116 40.8991 27.0348 40.8875 27.0605C40.8782 27.0861 40.8712 27.114 40.8619 27.1396C40.8549 27.1652 40.8456 27.1909 40.8409 27.2188C40.8363 27.2467 40.8339 27.277 40.8316 27.3073C40.8316 27.3306 40.8246 27.3515 40.8246 27.3771C40.8246 27.3818 40.8246 27.3841 40.8246 27.3888C40.8246 27.3934 40.8246 27.3981 40.8246 27.4027C40.8688 28.8556 40.4522 29.964 39.5328 30.7952C39.8028 29.3097 39.6422 27.731 38.3271 26.3643C38.3271 26.3643 38.3247 26.3596 38.3224 26.3596C38.3224 26.3596 38.3178 26.355 38.3178 26.3526C38.3061 26.341 38.2898 26.3317 38.2782 26.32C38.2503 26.2944 38.2247 26.2711 38.1944 26.2502C38.1711 26.2339 38.1478 26.2222 38.1246 26.2106C38.1013 26.1966 38.078 26.1827 38.0524 26.171C38.0175 26.157 37.9826 26.1454 37.9477 26.1361C37.9314 26.1314 37.9151 26.1245 37.8988 26.1198C31.5001 24.6739 27.0311 19.7377 27.0311 14.1147C27.0311 7.26455 33.5996 1.69273 41.6719 1.69273C49.7441 1.69273 56.3127 7.26455 56.3127 14.1147C56.3127 20.9648 50.1072 26.2968 42.1863 26.5296L42.184 26.5273Z" fill="#0099D9"/>
<path d="M50.5632 11.77C50.6609 11.3905 50.6028 10.9946 50.4003 10.657L48.9199 8.17729C48.5102 7.48809 47.6117 7.25758 46.9297 7.66039L44.4997 9.05043V6.28432C44.4997 5.47637 43.8433 4.81976 43.0356 4.81976H40.3053C39.4976 4.81976 38.8412 5.47637 38.8412 6.28432V9.05043L36.4205 7.66505C35.7292 7.25758 34.8307 7.48809 34.421 8.17729L32.9407 10.657C32.7405 10.9946 32.6823 11.3881 32.7777 11.77C32.8755 12.1495 33.1152 12.4708 33.4597 12.6734L35.9596 14.1193L33.476 15.5792C33.1385 15.7795 32.8988 16.0984 32.801 16.4803C32.7032 16.8598 32.7614 17.2557 32.9639 17.5933L34.4443 20.073C34.8563 20.7622 35.7524 20.9927 36.4414 20.5876L38.8412 19.1905V21.9427C38.8412 22.7506 39.4976 23.4072 40.3053 23.4072H43.0356C43.8433 23.4072 44.4997 22.7506 44.4997 21.9427V19.1905L46.8972 20.5876C47.5885 20.9927 48.4869 20.7645 48.8966 20.0753L50.377 17.5956C50.5771 17.258 50.6353 16.8645 50.5399 16.4826C50.4421 16.1031 50.2024 15.7818 49.8649 15.5815L47.3836 14.1217L49.8905 12.6711C50.228 12.4708 50.4678 12.1518 50.5655 11.77H50.5632ZM45.2818 13.3836C45.0211 13.5349 44.8605 13.812 44.8605 14.1123C44.8605 14.4127 45.0188 14.6921 45.2771 14.8434L48.8105 16.9227L47.5605 19.0182L44.0807 16.9902C43.82 16.8365 43.4965 16.8365 43.2358 16.9879C42.9728 17.1392 42.8122 17.4186 42.8122 17.7213V21.7215H40.5288V17.7213C40.5288 17.4186 40.3681 17.1392 40.1051 16.9879C39.8421 16.8365 39.5209 16.8365 39.2602 16.9902L35.7804 19.0182L34.5304 16.9227L38.0638 14.8434C38.3222 14.6921 38.4804 14.4127 38.4804 14.1123C38.4804 13.812 38.3198 13.5349 38.0591 13.3836L34.5072 11.3299L35.7571 9.23438L39.2648 11.2414C39.5255 11.3905 39.8468 11.3905 40.1074 11.2391C40.3681 11.0878 40.5288 10.8107 40.5288 10.508V6.51017H42.8122V10.508C42.8122 10.8084 42.9728 11.0878 43.2335 11.2391C43.4942 11.3905 43.8154 11.3905 44.0761 11.2414L47.5838 9.23438L48.8338 11.3299L45.2818 13.3836Z" fill="#0099D9"/>
</g>
<defs>
<clipPath id="clip0_525_1194">
<rect width="58" height="58" fill="white"/>
</clipPath>
</defs>
</svg>
